<svg xmlns="http://www.w3.org/2000/svg" xmlns:xlink="http://www.w3.org/1999/xlink" viewBox="0 0 190.59 235.87"><defs><style>.cls-1{fill:#1cf2f2;}.cls-2{isolation:isolate;}.cls-3{clip-path:url(#clip-path);}.cls-4{clip-path:url(#clip-path-2);}.cls-5{clip-path:url(#clip-path-3);}.cls-6{clip-path:url(#clip-path-4);}.cls-7{clip-path:url(#clip-path-5);}.cls-8{clip-path:url(#clip-path-6);}.cls-9{clip-path:url(#clip-path-7);}.cls-10{clip-path:url(#clip-path-8);}.cls-11{clip-path:url(#clip-path-9);}.cls-12{clip-path:url(#clip-path-10);}.cls-13{clip-path:url(#clip-path-11);}.cls-14{clip-path:url(#clip-path-12);}.cls-15{clip-path:url(#clip-path-13);}.cls-16{clip-path:url(#clip-path-14);}.cls-17{clip-path:url(#clip-path-15);}.cls-18{clip-path:url(#clip-path-16);}.cls-19{clip-path:url(#clip-path-17);}.cls-20{clip-path:url(#clip-path-18);}.cls-21{clip-path:url(#clip-path-19);}.cls-22{clip-path:url(#clip-path-20);}.cls-23{clip-path:url(#clip-path-21);}.cls-24{clip-path:url(#clip-path-22);}.cls-25{clip-path:url(#clip-path-23);}.cls-26{clip-path:url(#clip-path-24);}.cls-27{clip-path:url(#clip-path-25);}.cls-28{clip-path:url(#clip-path-26);}.cls-29{clip-path:url(#clip-path-27);}.cls-30{clip-path:url(#clip-path-28);}.cls-31{clip-path:url(#clip-path-29);}.cls-32{clip-path:url(#clip-path-30);}.cls-33{clip-path:url(#clip-path-31);}.cls-34{clip-path:url(#clip-path-32);}.cls-35{clip-path:url(#clip-path-33);}.cls-36{clip-path:url(#clip-path-34);}.cls-37{clip-path:url(#clip-path-35);}.cls-38{clip-path:url(#clip-path-36);}.cls-39{clip-path:url(#clip-path-37);}.cls-40{clip-path:url(#clip-path-38);}.cls-41{clip-path:url(#clip-path-39);}.cls-42{clip-path:url(#clip-path-40);}.cls-43{clip-path:url(#clip-path-41);}.cls-44{clip-path:url(#clip-path-42);}.cls-45{clip-path:url(#clip-path-43);}.cls-46{clip-path:url(#clip-path-44);}.cls-47{clip-path:url(#clip-path-45);}.cls-48{clip-path:url(#clip-path-46);}.cls-49{clip-path:url(#clip-path-47);}.cls-50{clip-path:url(#clip-path-48);}.cls-51{clip-path:url(#clip-path-49);}.cls-52{clip-path:url(#clip-path-50);}.cls-53{clip-path:url(#clip-path-51);}.cls-54{clip-path:url(#clip-path-52);}.cls-55{clip-path:url(#clip-path-53);}.cls-56{clip-path:url(#clip-path-54);}.cls-57{clip-path:url(#clip-path-55);}.cls-58{clip-path:url(#clip-path-56);}.cls-59{clip-path:url(#clip-path-57);}.cls-60{clip-path:url(#clip-path-58);}.cls-61{clip-path:url(#clip-path-59);}.cls-62{clip-path:url(#clip-path-60);}.cls-63{clip-path:url(#clip-path-61);}.cls-64{clip-path:url(#clip-path-62);}.cls-65{clip-path:url(#clip-path-63);}.cls-66{clip-path:url(#clip-path-64);}.cls-67{clip-path:url(#clip-path-65);}.cls-68{clip-path:url(#clip-path-66);}.cls-69{clip-path:url(#clip-path-67);}.cls-70{clip-path:url(#clip-path-68);}.cls-71{clip-path:url(#clip-path-69);}.cls-72{clip-path:url(#clip-path-70);}.cls-73{clip-path:url(#clip-path-71);}.cls-74{clip-path:url(#clip-path-72);}.cls-75{clip-path:url(#clip-path-73);}.cls-76{clip-path:url(#clip-path-74);}.cls-77{clip-path:url(#clip-path-75);}.cls-78{clip-path:url(#clip-path-76);}.cls-79{clip-path:url(#clip-path-77);}.cls-80{clip-path:url(#clip-path-78);}.cls-81{clip-path:url(#clip-path-79);}.cls-82{clip-path:url(#clip-path-80);}.cls-83{clip-path:url(#clip-path-81);}.cls-84{clip-path:url(#clip-path-82);}.cls-85{clip-path:url(#clip-path-83);}.cls-86{clip-path:url(#clip-path-84);}.cls-87{clip-path:url(#clip-path-85);}.cls-88{clip-path:url(#clip-path-86);}.cls-89{clip-path:url(#clip-path-87);}.cls-90{clip-path:url(#clip-path-88);}.cls-91{clip-path:url(#clip-path-89);}.cls-92{clip-path:url(#clip-path-90);}.cls-93{clip-path:url(#clip-path-91);}.cls-94{clip-path:url(#clip-path-92);}.cls-95{clip-path:url(#clip-path-93);}.cls-96{clip-path:url(#clip-path-94);}.cls-97{clip-path:url(#clip-path-95);}.cls-98{clip-path:url(#clip-path-96);}.cls-99{clip-path:url(#clip-path-97);}.cls-100{clip-path:url(#clip-path-98);}.cls-101{clip-path:url(#clip-path-99);}.cls-102{clip-path:url(#clip-path-100);}.cls-103{clip-path:url(#clip-path-101);}.cls-104{clip-path:url(#clip-path-102);}.cls-105{clip-path:url(#clip-path-103);}.cls-106{clip-path:url(#clip-path-104);}.cls-107{clip-path:url(#clip-path-105);}.cls-108{clip-path:url(#clip-path-106);}.cls-109{clip-path:url(#clip-path-107);}.cls-110{clip-path:url(#clip-path-108);}.cls-111{clip-path:url(#clip-path-109);}.cls-112{clip-path:url(#clip-path-110);}.cls-113{clip-path:url(#clip-path-111);}.cls-114{clip-path:url(#clip-path-112);}.cls-115{clip-path:url(#clip-path-113);}.cls-116{clip-path:url(#clip-path-114);}.cls-117{clip-path:url(#clip-path-115);}.cls-118{clip-path:url(#clip-path-116);}.cls-119{clip-path:url(#clip-path-117);}.cls-120{clip-path:url(#clip-path-118);}.cls-121{clip-path:url(#clip-path-119);}.cls-122{clip-path:url(#clip-path-120);}.cls-123{clip-path:url(#clip-path-121);}.cls-124{clip-path:url(#clip-path-122);}.cls-125{clip-path:url(#clip-path-123);}.cls-126{clip-path:url(#clip-path-124);}.cls-127{clip-path:url(#clip-path-125);}.cls-128{clip-path:url(#clip-path-126);}.cls-129{clip-path:url(#clip-path-127);}.cls-130{clip-path:url(#clip-path-128);}.cls-131{clip-path:url(#clip-path-129);}</style><clipPath id="clip-path"><path class="cls-1" d="M182.35,193.05l-.46-.25.28-.29.46.25Z"/></clipPath><clipPath id="clip-path-2"><path class="cls-1" d="M107.69,194.64l-.46-.25a99.37,99.37,0,0,0,19.62,8.19A67.5,67.5,0,0,0,155,205.11a49,49,0,0,0,10-2.47,44.62,44.62,0,0,0,6.36-2.9,43.1,43.1,0,0,0,10-7.64,46.22,46.22,0,0,0,8.12-11.48l.46.25a46.22,46.22,0,0,1-8.12,11.48,43.1,43.1,0,0,1-10,7.64,44.62,44.62,0,0,1-6.36,2.9,49,49,0,0,1-10,2.47,67.5,67.5,0,0,1-28.19-2.52A99.37,99.37,0,0,1,107.69,194.64Z"/></clipPath><clipPath id="clip-path-3"><path class="cls-1" d="M181.68,193l.21-.21.46.25-.21.21-.34.34-.73.7-.21.19-.63.58-.28.25-.85.73-.85.69L178,197l-.65.5-.27.2-.89.64-.21.14-.74.5-.28.19-1,.6-1,.57-.29.17-.77.43-.24.13-1,.51-.28.14-.43.21-.29.14-.46.22-.65.29-.45.2-.74.31-.38.15-1.14.43-1.1.39-.58.19-.54.17-.64.19-.5.15-.67.18-.48.13-.69.17-.5.12-.67.15-.57.12-.62.12-1,.18-.51.08-1,.16-.45-.25.45.25h0l-.45-.25.45.25h0l-.59.08-.25,0-.46-.25.25,0,.59-.08,1-.16.51-.08,1-.18.62-.12.57-.12.67-.15.5-.12.69-.17.48-.13.67-.18.5-.15.64-.19.54-.17.58-.19,1.1-.39,1.14-.43.38-.15.74-.31.45-.2.65-.29.46-.22.29-.14.43-.21.28-.14,1-.51.24-.13.77-.43.29-.17,1-.57,1-.6.28-.19.74-.5.21-.14.89-.64.27-.2.65-.5.28-.22.85-.69.85-.73.28-.25.63-.58.21-.19.73-.7Z"/></clipPath><clipPath id="clip-path-4"><path class="cls-1" d="M169.58,201.65a44.17,44.17,0,0,0,6.18-3.63l.46.25a44.17,44.17,0,0,1-6.18,3.63l-.45-.25Z"/></clipPath><clipPath id="clip-path-5"><path class="cls-1" d="M154.34,206l.2,0,.46.25-.2,0Z"/></clipPath><clipPath id="clip-path-6"><path class="cls-1" d="M154.14,206l.2,0,.46.25-.2,0Z"/></clipPath><clipPath id="clip-path-7"><path class="cls-1" d="M153.9,206.06l.24,0,.46.25-.24,0Z"/></clipPath><clipPath id="clip-path-8"><path class="cls-1" d="M152.72,206.18l1.18-.12.46.25-1.18.12-.38,0-1.53.11-.46-.25,1.53-.11Z"/></clipPath><clipPath id="clip-path-9"><path class="cls-1" d="M149.57,206.64l-.46-.25h.47l.9,0h.33l.46.25h-.33l-.9,0Z"/></clipPath><clipPath id="clip-path-10"><path class="cls-1" d="M148.3,206.41l.82,0,.46.25-.82,0h-.08l-.09-.05-.2-.11h0l-.07,0s0,0-.07,0Z"/></clipPath><clipPath id="clip-path-11"><path class="cls-1" d="M148.22,206.41a.85.85,0,0,1,.19.1l.19.1.07,0h-.23l-.43-.24h.2Z"/></clipPath><clipPath id="clip-path-12"><path class="cls-1" d="M148,206.41h0l.43.24h-1.51l-.8,0h-.2l-.46-.25h.2l.8,0H148Z"/></clipPath><clipPath id="clip-path-13"><path class="cls-1" d="M145.49,206.39a.81.81,0,0,1,.17.09l.28.15h-.18l-.59,0-.51,0h-.22l-.46-.25h.22l.51,0,.59,0Z"/></clipPath><clipPath id="clip-path-14"><path class="cls-1" d="M143.57,206.3l.41,0,.46.25-.41,0-.31,0-.46-.25Z"/></clipPath><clipPath id="clip-path-15"><path class="cls-1" d="M143,206.26l.3,0,.46.25-.3,0Z"/></clipPath><clipPath id="clip-path-16"><path class="cls-1" d="M142.61,206.24l.35,0,.46.25-.35,0Z"/></clipPath><clipPath id="clip-path-17"><path class="cls-1" d="M142.43,206.22h.18l.46.25h-.18Z"/></clipPath><clipPath id="clip-path-18"><path class="cls-1" d="M141.1,206.11l1.34.12.46.25-1.34-.12-.53-.06-.81-.09-.68-.08-.67-.09-.75-.11-.58-.09-.81-.13-.53-.09-.86-.15-.43-.08-.46-.25.43.08.86.15.53.09.81.13.58.09.75.11.67.09.68.08.81.09Z"/></clipPath><clipPath id="clip-path-19"><path class="cls-1" d="M131,204.41q1.73.41,3.44.74l.46.25q-1.71-.33-3.44-.74l-.14,0-.46-.25Z"/></clipPath><clipPath id="clip-path-20"><path class="cls-1" d="M130.67,204.33l.19,0,.46.25-.19,0Z"/></clipPath><clipPath id="clip-path-21"><path class="cls-1" d="M130.13,204.19l.54.14.46.25-.54-.14Z"/></clipPath><clipPath id="clip-path-22"><path class="cls-1" d="M129.29,204l.85.21.46.25-.85-.21-.84-.22-1.51-.42-.51-.15-.46-.25.51.15,1.51.42Z"/></clipPath><clipPath id="clip-path-23"><path class="cls-1" d="M125.93,203l.35.11.46.25-.35-.11Z"/></clipPath><clipPath id="clip-path-24"><path class="cls-1" d="M126.28,203.14l.16,0,.46.25-.16,0Z"/></clipPath><clipPath id="clip-path-25"><path class="cls-1" d="M125.74,203l.19.06.46.25-.19-.06Z"/></clipPath><clipPath id="clip-path-26"><path class="cls-1" d="M125.43,202.88l.3.09.46.25-.3-.09Z"/></clipPath><clipPath id="clip-path-27"><path class="cls-1" d="M125.12,202.78l.31.1.46.25-.31-.1Z"/></clipPath><clipPath id="clip-path-28"><path class="cls-1" d="M124.89,202.71l.23.07.46.25-.23-.07Z"/></clipPath><clipPath id="clip-path-29"><path class="cls-1" d="M124.23,202.5l.48.16.46.25-.48-.16Z"/></clipPath><clipPath id="clip-path-30"><path class="cls-1" d="M124.72,202.65l.18.06.46.25-.18-.06Z"/></clipPath><clipPath id="clip-path-31"><path class="cls-1" d="M124,202.42l.22.07.46.25-.22-.07Z"/></clipPath><clipPath id="clip-path-32"><path class="cls-1" d="M123.74,202.33l.28.09.46.25-.28-.09Z"/></clipPath><clipPath id="clip-path-33"><path class="cls-1" d="M123.27,202.17l.47.16.46.25-.47-.16Z"/></clipPath><clipPath id="clip-path-34"><path class="cls-1" d="M123,202.07l.32.11.46.25-.32-.11Z"/></clipPath><clipPath id="clip-path-35"><path class="cls-1" d="M122.77,202l.18.06.46.25-.18-.06Z"/></clipPath><clipPath id="clip-path-36"><path class="cls-1" d="M176.24,104.73l-.46-.25.57-.41c6.67-4.77,8.12-7.13,8.2-7.25l.46.25c-.08.12-1.53,2.48-8.2,7.25Z"/></clipPath><clipPath id="clip-path-37"><path class="cls-1" d="M122.35,201.86l.42.15.46.25-.42-.15Z"/></clipPath><clipPath id="clip-path-38"><path class="cls-1" d="M121.91,201.7l.44.16.46.25-.44-.16Z"/></clipPath><clipPath id="clip-path-39"><path class="cls-1" d="M121.17,201.43l.74.27.46.25-.74-.27Z"/></clipPath><clipPath id="clip-path-40"><path class="cls-1" d="M120.14,201l1,.38.46.25-1-.38Z"/></clipPath><clipPath id="clip-path-41"><path class="cls-1" d="M119.47,200.79l.67.26.46.25-.67-.26Z"/></clipPath><clipPath id="clip-path-42"><path class="cls-1" d="M118.33,200.34l1.14.45.46.25-1.14-.45Z"/></clipPath><clipPath id="clip-path-43"><path class="cls-1" d="M117.77,200.12l.56.23.46.25-.56-.23Z"/></clipPath><clipPath id="clip-path-44"><path class="cls-1" d="M116.4,199.55l1.36.57.46.25-1.36-.57Z"/></clipPath><clipPath id="clip-path-45"><path class="cls-1" d="M116.07,199.4l.34.14.46.25-.34-.14Z"/></clipPath><clipPath id="clip-path-46"><path class="cls-1" d="M113.06,198.05c1,.47,2,.92,3,1.35l.46.25c-1-.43-2-.88-3-1.35Z"/></clipPath><clipPath id="clip-path-47"><path class="cls-1" d="M113.06,198.05l.46.25-.92-.44-.46-.25Z"/></clipPath><clipPath id="clip-path-48"><path class="cls-1" d="M170,85.14C158.19,54.84,134.21,27,106.8,12.06l.46.25c27.41,14.92,51.39,42.78,63.22,73.08l-.23-.12-.06,0-.09,0A.25.25,0,0,1,170,85.14Z"/></clipPath><clipPath id="clip-path-49"><path class="cls-1" d="M103.11,10.15l1.51.76.46.25-1.5-.76Z"/></clipPath><clipPath id="clip-path-50"><path class="cls-1" d="M103.11,10.15l.46.25L102,9.65l-.46-.25Z"/></clipPath><clipPath id="clip-path-51"><path class="cls-1" d="M101.59,9.41l.46.25q-2-.94-4-1.78l-1.28-.53-.46-.25,1.28.53Q99.62,8.47,101.59,9.41Z"/></clipPath><clipPath id="clip-path-52"><path class="cls-1" d="M95.71,6.83l.65.27.46.25-.65-.27Z"/></clipPath><clipPath id="clip-path-53"><path class="cls-1" d="M94.62,6.4l1.09.43.46.25-1.09-.43Z"/></clipPath><clipPath id="clip-path-54"><path class="cls-1" d="M93.77,6.08l.85.33.46.25-.85-.33Z"/></clipPath><clipPath id="clip-path-55"><path class="cls-1" d="M92.79,5.72l1,.36.46.25-1-.36-1-.35-.87-.3-1.72-.57-2-.61-.46-.25,2,.61,1.72.57.87.3Z"/></clipPath><clipPath id="clip-path-56"><path class="cls-1" d="M87.21,3.88h0l.46.25h0l-.46-.25Z"/></clipPath><clipPath id="clip-path-57"><path class="cls-1" d="M87.18,3.87h0l.45.25-1.56-.43L85,3.4l-.78-.2L83.75,3l.78.2,1.1.29Z"/></clipPath><clipPath id="clip-path-58"><path class="cls-1" d="M83.75,3l.14.08.31.17-.35-.09-.46-.25Z"/></clipPath><clipPath id="clip-path-59"><path class="cls-1" d="M79.17,41.28l.46.25.58.32-.46-.25Z"/></clipPath><clipPath id="clip-path-60"><path class="cls-1" d="M83.69,3.08l-.46-.25.17,0,.46.25Z"/></clipPath><clipPath id="clip-path-61"><path class="cls-1" d="M82.64,2.69l.59.14.46.25-.59-.14-1.28-.29-.57-.12-.91-.18-.46-.25.91.18.57.12Z"/></clipPath><clipPath id="clip-path-62"><path class="cls-1" d="M79.88,2.1a1.39,1.39,0,0,1,.19.1l.27.15L80,2.29,79.57,2Z"/></clipPath><clipPath id="clip-path-63"><path class="cls-1" d="M79.57,2h0l.45.24-.33-.06L79,2.09l-1.2-.2-.9-.14L75.73,1.6,75,1.5l-1.46-.16-.47,0-.46-.25.47,0,1.46.16.72.09,1.13.16.9.14,1.2.2.73.13Z"/></clipPath><clipPath id="clip-path-64"><path class="cls-1" d="M72.61,1.05a.8.8,0,0,1,.15.08l.31.17-.22,0h0L72.36,1h0Z"/></clipPath><clipPath id="clip-path-65"><path class="cls-1" d="M72.36,1h0l.45.24-1-.08-.69,0-1.45-.07-.65,0L67.9,1H66.13L65.68.79h1.77l1.14,0,.65,0L70.69.9l.69,0Z"/></clipPath><clipPath id="clip-path-66"><path class="cls-1" d="M65.68.79l.07,0,.38.21h-.23L65.45.79h.23Z"/></clipPath><clipPath id="clip-path-67"><path class="cls-1" d="M65.45.79h0l.45.24-.6,0L64,1.12h-.12L63.39.87h.12L64.85.81Z"/></clipPath><clipPath id="clip-path-68"><path class="cls-1" d="M87.11,3.13a98.51,98.51,0,0,1,17.33,7l.46.25a98.51,98.51,0,0,0-17.33-7,71.34,71.34,0,0,0-24.15-3L63,.1A71.34,71.34,0,0,1,87.11,3.13Z"/></clipPath><clipPath id="clip-path-69"><path class="cls-1" d="M62.93.91l.47,0,.46.25-.47,0-1.12.08-.56,0-1.4.15-.52.07-.27,0-.46-.25.27,0,.52-.07L61.25,1l.56,0Z"/></clipPath><clipPath id="clip-path-70"><path class="cls-1" d="M59.06,1.3a.27.27,0,0,1,.08,0l.08,0,.16.09.13.07-.24,0-.46-.25Z"/></clipPath><clipPath id="clip-path-71"><path class="cls-1" d="M58.82,1.33h0l.45.24-.4.06L58,1.77l-.83.15-.81.15-1.07.23-1,.24-1,.27-.7.2-.88.26L51.24,3l.88-.26.7-.2,1-.27,1-.24,1.07-.23.81-.15.83-.15.85-.13Z"/></clipPath><clipPath id="clip-path-72"><path class="cls-1" d="M51.1,3.06l.14,0,.46.25-.14,0Z"/></clipPath><clipPath id="clip-path-73"><path class="cls-1" d="M51.1,3.06l.46.25L51,3.49l-.84.28L49.45,4l-.84.32L48,4.6l-1.22.52-.26.12-1.17.55L44.88,6l-.28.14-.11-.06-.35-.19.28-.14.42-.21L46,5l.26-.12,1.22-.52.66-.26L49,3.77l.69-.25.84-.28Z"/></clipPath><clipPath id="clip-path-74"><path class="cls-1" d="M31.92,15.16l.46.25a46.19,46.19,0,0,0-3.66,4.53l-.46-.25A46.19,46.19,0,0,1,31.92,15.16Z"/></clipPath><clipPath id="clip-path-75"><path class="cls-1" d="M44.14,5.88l.46.25-.2.1L43.94,6Z"/></clipPath><clipPath id="clip-path-76"><path class="cls-1" d="M43.94,6l.46.25-.72.38-.23.13-1.13.64-.4.24-1.16.72-.2.13-1.1.75-.36.26-.89.65-.46-.25.89-.65L39,9l1.1-.75.2-.13,1.16-.72.4-.24L43,6.49l.23-.13Z"/></clipPath><clipPath id="clip-path-77"><path class="cls-1" d="M37.74,9.87l.46.25-.19.14L37.55,10Z"/></clipPath><clipPath id="clip-path-78"><path class="cls-1" d="M37.55,10l.46.25-.17.13c-.37.29-.74.58-1.1.88l-.31.26c-.38.32-.76.64-1.16,1s-.73.67-1.09,1l-.28.27c-.36.36-.72.72-1.07,1.09l-.46-.25c.35-.37.71-.73,1.07-1.09l.28-.27c.36-.35.72-.69,1.09-1s.78-.69,1.16-1l.31-.26c.36-.3.73-.6,1.1-.88Z"/></clipPath><clipPath id="clip-path-79"><path class="cls-1" d="M31.35,14.5A45,45,0,0,1,58.59.54L59,.79a45,45,0,0,0-27.24,14Z"/></clipPath><clipPath id="clip-path-80"><path class="cls-1" d="M31.32,14.53l0,0,.46.25,0,0Z"/></clipPath><clipPath id="clip-path-81"><path class="cls-1" d="M31.32,14.53l.46.25q-.95,1-1.84,2.13l-.46-.25Q30.38,15.56,31.32,14.53Z"/></clipPath><clipPath id="clip-path-82"><path class="cls-1" d="M29.49,16.66l.46.25-.13.16-.46-.25Z"/></clipPath><clipPath id="clip-path-83"><path class="cls-1" d="M29.36,16.82l.46.25q-.88,1.09-1.71,2.26l-.46-.25Q28.48,17.92,29.36,16.82Z"/></clipPath><clipPath id="clip-path-84"><path class="cls-1" d="M176.24,104.73a119.13,119.13,0,0,0-5.77-19.34l-.46-.25a119.13,119.13,0,0,1,5.77,19.34h0Z"/></clipPath><clipPath id="clip-path-85"><path class="cls-1" d="M112.14,197.61l.46.25-1.43-.7-1.27-.64-.46-.25,1.27.64Z"/></clipPath><clipPath id="clip-path-86"><path class="cls-1" d="M107.89,195.46l1.55.81.46.25-1.55-.81Z"/></clipPath><clipPath id="clip-path-87"><path class="cls-1" d="M107.89,195.46l.46.25-.75-.41-.46-.25Z"/></clipPath><clipPath id="clip-path-88"><path class="cls-1" d="M142.38,114.36l-.3-.77.46.25.3.77.38,1,.42,1.13.35.95c.15.42.3.84.44,1.26l.29.83q.35,1,.68,2.06l-.46-.25q-.33-1-.68-2.06l-.29-.83c-.15-.42-.29-.84-.44-1.26l-.35-.95-.42-1.13Z"/></clipPath><clipPath id="clip-path-89"><path class="cls-1" d="M135,126.54l-.46-.25q5.61-2.46,10.42-4.72c15.42-7.24,25-13,30.84-17.09l.46.25c-5.85,4.12-15.42,9.86-30.84,17.09Q140.58,124.08,135,126.54Z"/></clipPath><clipPath id="clip-path-90"><path class="cls-1" d="M80.08,224.58l-.46-.25-1-.55.46.25Z"/></clipPath><clipPath id="clip-path-91"><path class="cls-1" d="M79.09,224l-.46-.25-.84-.47.46.25Z"/></clipPath><clipPath id="clip-path-92"><path class="cls-1" d="M78.24,223.56l-.46-.25-1.12-.65.46.25Z"/></clipPath><clipPath id="clip-path-93"><path class="cls-1" d="M77.12,222.91l-.46-.25-1.29-.76.46.25Z"/></clipPath><clipPath id="clip-path-94"><path class="cls-1" d="M75.83,222.15l-.46-.25-.71-.43.46.25Z"/></clipPath><clipPath id="clip-path-95"><path class="cls-1" d="M75.12,221.72l-.46-.25-1.32-.81.46.25Z"/></clipPath><clipPath id="clip-path-96"><path class="cls-1" d="M73.8,220.91l-.46-.25-.64-.4.46.25Z"/></clipPath><clipPath id="clip-path-97"><path class="cls-1" d="M73.16,220.51l-.46-.25-1.62-1,.46.25Z"/></clipPath><clipPath id="clip-path-98"><path class="cls-1" d="M71.54,219.46l-.46-.25-.32-.21-1.93-1.3.46.25,1.93,1.3Z"/></clipPath><clipPath id="clip-path-99"><path class="cls-1" d="M69.28,218l-.46-.25-.51-.36-1.41-1,.46.25,1.41,1Z"/></clipPath><clipPath id="clip-path-100"><path class="cls-1" d="M67.36,216.61l-.46-.25-.68-.49L65,215l.46.25,1.24.9Z"/></clipPath><clipPath id="clip-path-101"><path class="cls-1" d="M65.45,215.21,65,215l-.72-.53L63,213.5l.46.25,1.23.93Z"/></clipPath><clipPath id="clip-path-102"><path class="cls-1" d="M63.5,213.75,63,213.5l-.68-.52-1.44-1.14.46.25,1.44,1.14Z"/></clipPath><clipPath id="clip-path-103"><path class="cls-1" d="M61.39,212.09l-.46-.25-.42-.34L58.65,210l.46.25L61,211.75Z"/></clipPath><clipPath id="clip-path-104"><path class="cls-1" d="M59.11,210.22l-.46-.25-.43-.36-1.41-1.2-.64-.56L55,206.78l-.67-.61-1.17-1.07-.66-.61-1.28-1.22-.49-.47q-.88-.86-1.76-1.74l.46.25q.87.88,1.76,1.74l.49.47,1.28,1.22.66.61,1.17,1.07.67.61,1.2,1.06.64.56,1.41,1.2Z"/></clipPath><clipPath id="clip-path-105"><path class="cls-1" d="M49.41,201.32l-.46-.25-.27-.28-1.46-1.5-.57-.59.46.25.57.59,1.46,1.5Z"/></clipPath><clipPath id="clip-path-106"><path class="cls-1" d="M142.53,113.84l-.46-.25-.17-.42-.23-.56q-.34-.85-.7-1.69c-.36-.86-.63-1.46-.89-2.06l-.24-.53q-.39-.86-.78-1.72c-.37-.8-.66-1.41-1-2l-.26-.53q-.42-.87-.86-1.73c-.38-.75-.7-1.36-1-2l-.27-.51q-.46-.87-.93-1.73c-.4-.72-.74-1.33-1.08-1.93l-.28-.48-1-1.71c-.42-.72-.79-1.32-1.15-1.91l-.28-.46q-.55-.89-1.11-1.77c-.4-.62-.78-1.22-1.17-1.81l-.29-.44q-1.18-1.79-2.42-3.54l-.27-.38q-1.24-1.76-2.54-3.48l-.29-.39q-1.31-1.73-2.66-3.41l-.27-.34q-1.36-1.68-2.76-3.33l-.32-.37q-1.41-1.64-2.86-3.23l.46.25q1.45,1.59,2.86,3.23l.32.37q1.4,1.64,2.76,3.33l.27.34q1.35,1.69,2.66,3.41l.29.39q1.29,1.72,2.54,3.48l.27.38q1.23,1.75,2.42,3.54l.29.44c.39.59.78,1.19,1.17,1.81s.74,1.18,1.11,1.77l.28.46c.37.6.73,1.2,1.15,1.91l1,1.71.28.48c.34.6.69,1.21,1.08,1.93s.63,1.15.93,1.73l.27.51c.32.61.64,1.22,1,2q.44.86.86,1.73l.26.53c.29.61.59,1.22,1,2q.4.86.78,1.72l.24.53c.27.6.53,1.21.89,2.06q.36.84.7,1.69l.23.56Z"/></clipPath><clipPath id="clip-path-107"><path class="cls-1" d="M114.49,69.38l-.46-.25-.28-.31q-1.46-1.6-3-3.15l.46.25q1.5,1.55,3,3.15Z"/></clipPath><clipPath id="clip-path-108"><path class="cls-1" d="M111.24,65.92l-.46-.25-.31-.32q-1.5-1.53-3-3l.46.25q1.53,1.49,3,3Z"/></clipPath><clipPath id="clip-path-109"><path class="cls-1" d="M107.9,62.58l-.46-.25L107.1,62q-1.54-1.48-3.12-2.91l.46.25q1.58,1.43,3.12,2.91Z"/></clipPath><clipPath id="clip-path-110"><path class="cls-1" d="M104.44,59.34l-.46-.25-.32-.29q-1.58-1.42-3.19-2.79l.46.25q1.61,1.37,3.19,2.79Z"/></clipPath><clipPath id="clip-path-111"><path class="cls-1" d="M100.93,56.26l-.46-.25-.36-.3-1.6-1.33-1.64-1.32.46.25L99,54.62l1.6,1.33Z"/></clipPath><clipPath id="clip-path-112"><path class="cls-1" d="M97.33,53.3l-.46-.25-.37-.29-1.62-1.26-1.68-1.26.46.25,1.68,1.26L97,53Z"/></clipPath><clipPath id="clip-path-113"><path class="cls-1" d="M93.66,50.5l-.46-.25-.4-.3-1.62-1.17-1.72-1.19.46.25L91.63,49l1.62,1.17Z"/></clipPath><clipPath id="clip-path-114"><path class="cls-1" d="M104.61,10.91q1.09.56,2.17,1.15l.46.25q-1.08-.59-2.17-1.15Z"/></clipPath><clipPath id="clip-path-115"><path class="cls-1" d="M107.62,195.32l-.46-.25A136.38,136.38,0,0,1,72,167a149.78,149.78,0,0,1-28.24-44.71l.46.25a149.78,149.78,0,0,0,28.24,44.71A136.38,136.38,0,0,0,107.62,195.32Z"/></clipPath><clipPath id="clip-path-116"><path class="cls-1" d="M89.92,47.84l-.46-.25L89,47.31l-1.62-1.08L85.67,45.1l.46.25,1.75,1.13,1.62,1.08Z"/></clipPath><clipPath id="clip-path-117"><path class="cls-1" d="M104.44,10.1q1.2.62,2.4,1.27l.46.25q-1.2-.65-2.4-1.27Z"/></clipPath><clipPath id="clip-path-118"><path class="cls-1" d="M86.13,45.35l-.46-.25-.47-.29.46.25Z"/></clipPath><clipPath id="clip-path-119"><path class="cls-1" d="M85.66,45.05l-.46-.25-1.57-1,.46.25Z"/></clipPath><clipPath id="clip-path-120"><path class="cls-1" d="M84.09,44.09l-.46-.25-1.83-1.08.46.25Z"/></clipPath><clipPath id="clip-path-121"><path class="cls-1" d="M82.27,43l-.46-.25-.48-.28.46.25Z"/></clipPath><clipPath id="clip-path-122"><path class="cls-1" d="M81.78,42.73l-.46-.25-1.58-.89.46.25Z"/></clipPath><clipPath id="clip-path-123"><path class="cls-1" d="M47.1,198.95l-.46-.25-1.16-1.23-1.14-1.23L43.27,195l-.6-.68-.76-.87-.63-.72-.6-.7-1.5-1.81-.43-.52-.83-1-.45-.56-.8-1-.45-.58-.8-1L35,185l-.82-1.1-.31-.42q-1.38-1.88-2.69-3.8l-.4-.58-.68-1-.46-.69-.62-.95-.52-.81L28,174.7l-.58-.92-.48-.78-.71-1.18-.33-.56-1-1.77-1-1.7-.65-1.18-.44-.8-.7-1.32-.35-.66q-.47-.92-.93-1.84c-.42-.84-.75-1.51-1.07-2.18l-.25-.52-.7-1.49-.32-.71-.59-1.32-.35-.8L17,153.73l-.34-.83-.5-1.23-.12-.31.46.25.12.31.5,1.23.34.83L18,155.2l.35.8.59,1.32.32.71.7,1.49.25.52c.32.68.65,1.35,1.07,2.18q.46.92.93,1.84l.35.66.7,1.32.44.8.65,1.18,1,1.7,1,1.77.33.56.71,1.18.48.78.58.92.56.88.52.81.62.95.46.69.68,1,.4.58q1.31,1.92,2.69,3.8l.31.42.82,1.1.4.54.8,1,.45.58.8,1,.45.56.83,1,.43.52,1.5,1.81.6.7.63.72.76.87.6.68,1.09,1.21,1.14,1.23Z"/></clipPath><clipPath id="clip-path-124"><path class="cls-1" d="M16.51,151.61l-.46-.25-.22-.55-.43-1.12-.34-.9-.4-1.09.46.25.4,1.09.34.9.43,1.12Z"/></clipPath><clipPath id="clip-path-125"><path class="cls-1" d="M15.12,148l-.46-.25-.14-.4.46.25Z"/></clipPath><clipPath id="clip-path-126"><path class="cls-1" d="M39.48,102.08l-.46-.25c5,2.72,11,5.74,18.14,9.06l.46.25C50.46,107.82,44.47,104.8,39.48,102.08Z"/></clipPath><clipPath id="clip-path-127"><path class="cls-1" d="M3.81,157.1l-.46-.25C1.6,111.28,13.17,84.44,13.78,83l.46.25C13.63,84.69,2.06,111.52,3.81,157.1Z"/></clipPath><clipPath id="clip-path-128"><path class="cls-1" d="M58.59.54Q60.74.24,63,.1l.46.25Q61.19.49,59,.79Z"/></clipPath><clipPath id="clip-path-129"><path class="cls-1" d="M.46,48.53,0,48.28a45.64,45.64,0,0,1,4.14-5.05l.46.25A45.64,45.64,0,0,0,.46,48.53Z"/></clipPath></defs><title>logo</title><g id="Layer_2" data-name="Layer 2"><g id="Capa_1" data-name="Capa 1"><g class="cls-2"><g class="cls-2"><path class="cls-1" d="M182.35,193.05l-.46-.25.28-.29.46.25Z"/><g class="cls-3"><g class="cls-2"><path class="cls-1" d="M182.35,193.05l-.46-.25.28-.29.46.25-.28.29"/></g></g></g><g class="cls-2"><path class="cls-1" d="M107.69,194.64l-.46-.25a99.37,99.37,0,0,0,19.62,8.19A67.5,67.5,0,0,0,155,205.11a49,49,0,0,0,10-2.47,44.62,44.62,0,0,0,6.36-2.9,43.1,43.1,0,0,0,10-7.64,46.22,46.22,0,0,0,8.12-11.48l.46.25a46.22,46.22,0,0,1-8.12,11.48,43.1,43.1,0,0,1-10,7.64,44.62,44.62,0,0,1-6.36,2.9,49,49,0,0,1-10,2.47,67.5,67.5,0,0,1-28.19-2.52A99.37,99.37,0,0,1,107.69,194.64Z"/><g class="cls-4"><g class="cls-2"><path class="cls-1" d="M107.69,194.64l-.46-.25q2,1.09,4,2.07l.46.25q-2-1-4-2.07"/><path class="cls-1" d="M111.69,196.71l-.46-.25a96.62,96.62,0,0,0,15.61,6.12q1.22.36,2.44.67l.46.25q-1.22-.32-2.44-.67a96.62,96.62,0,0,1-15.61-6.12"/><path class="cls-1" d="M129.74,203.5l-.46-.25A66.16,66.16,0,0,0,155,205.11a49,49,0,0,0,10-2.47q1.92-.7,3.74-1.56l.46.25q-1.82.86-3.74,1.56a49,49,0,0,1-10,2.47,66.16,66.16,0,0,1-25.75-1.85"/><path class="cls-1" d="M169.24,201.32l-.46-.25q1.33-.63,2.61-1.34,1.86-1,3.6-2.24l.46.25q-1.74,1.2-3.6,2.24-1.28.71-2.61,1.34"/><path class="cls-1" d="M175.45,197.74l-.46-.25a43,43,0,0,0,4.31-3.41l.46.25a43,43,0,0,1-4.31,3.41"/><path class="cls-1" d="M179.76,194.34l-.46-.25q1.07-1,2.08-2,.74-.76,1.44-1.55l.46.25q-.7.8-1.44,1.55-1,1-2.08,2"/><path class="cls-1" d="M183.27,190.79l-.46-.25a45.16,45.16,0,0,0,3.12-4l.46.25a45.16,45.16,0,0,1-3.12,4"/><path class="cls-1" d="M186.39,186.83l-.46-.25a47.59,47.59,0,0,0,2.95-4.79l.46.25a47.59,47.59,0,0,1-2.95,4.79"/><path class="cls-1" d="M189.34,182l-.46-.25q.31-.58.61-1.18l.46.25q-.3.59-.61,1.18"/></g></g></g><polygon class="cls-1" points="171.85 199.98 171.39 199.73 189.5 180.62 189.95 180.86 171.85 199.98"/><path class="cls-1" d="M171.85,200,190,180.86q-.79,1.56-1.66,3a46.81,46.81,0,0,1-2.83,4.21,44.47,44.47,0,0,1-3.22,3.81l-.4.43A43.1,43.1,0,0,1,171.85,200Z"/><path class="cls-1" d="M176.22,198.27a43.34,43.34,0,0,1-6.18,3.63A44.17,44.17,0,0,0,176.22,198.27Z"/><g class="cls-2"><path class="cls-1" d="M181.68,193l.21-.21.46.25-.21.21-.34.34-.73.7-.21.19-.63.58-.28.25-.85.73-.85.69L178,197l-.65.5-.27.2-.89.64-.21.14-.74.5-.28.19-1,.6-1,.57-.29.17-.77.43-.24.13-1,.51-.28.14-.43.21-.29.14-.46.22-.65.29-.45.2-.74.31-.38.15-1.14.43-1.1.39-.58.19-.54.17-.64.19-.5.15-.67.18-.48.13-.69.17-.5.12-.67.15-.57.12-.62.12-1,.18-.51.08-1,.16-.45-.25.45.25h0l-.45-.25.45.25h0l-.59.08-.25,0-.46-.25.25,0,.59-.08,1-.16.51-.08,1-.18.62-.12.57-.12.67-.15.5-.12.69-.17.48-.13.67-.18.5-.15.64-.19.54-.17.58-.19,1.1-.39,1.14-.43.38-.15.74-.31.45-.2.65-.29.46-.22.29-.14.43-.21.28-.14,1-.51.24-.13.77-.43.29-.17,1-.57,1-.6.28-.19.74-.5.21-.14.89-.64.27-.2.65-.5.28-.22.85-.69.85-.73.28-.25.63-.58.21-.19.73-.7Z"/><g class="cls-5"><g class="cls-2"><path class="cls-1" d="M155,206.23l-.46-.25.25,0,.59-.08,1-.16.51-.08,1-.18.62-.12.57-.12.67-.15.5-.12.69-.17.48-.13.67-.18.5-.15.64-.19.54-.17.58-.19,1.1-.39,1.14-.43.38-.15.74-.31.45-.2.65-.29.45-.21.46.25-.45.21-.65.29-.45.2-.74.31-.38.15-1.14.43-1.1.39-.58.19-.54.17-.64.19-.5.15-.67.18-.48.13-.69.17-.5.12-.67.15-.57.12-.62.12-1,.18-.51.08-1,.16-.59.08-.25,0"/><path class="cls-1" d="M169.74,202l-.46-.25h0l.46.25h0"/><path class="cls-1" d="M169.75,202l-.46-.25.25-.11.46.25-.25.11"/><path class="cls-1" d="M170,201.91l-.46-.25,0,0,.43-.21.28-.14,1-.51.24-.13.77-.43.29-.17,1-.57,1-.6.28-.19.74-.5.46.25-.74.5-.28.19-1,.6-1,.57-.29.17-.77.43-.24.13-1,.51-.28.14-.43.21,0,0"/><polyline class="cls-1" points="175.95 198.45 175.5 198.21 175.5 198.21 175.5 198.21 175.95 198.45 175.95 198.45 175.95 198.45"/><path class="cls-1" d="M176,198.45l-.46-.25.18-.12.46.25-.18.12"/><path class="cls-1" d="M176.13,198.33l-.46-.25,0,0,.89-.64.27-.2.65-.5.28-.22.85-.69.85-.73.28-.25.05,0,.46.25-.05,0-.28.25-.85.73-.85.69L178,197l-.65.5-.27.2-.89.64,0,0"/><path class="cls-1" d="M180.28,195l-.46-.25.58-.53.21-.19.73-.7.34-.34.21-.21.46.25-.21.21-.34.34-.73.7-.21.19-.58.53"/></g></g></g><g class="cls-2"><path class="cls-1" d="M169.58,201.65a44.17,44.17,0,0,0,6.18-3.63l.46.25a44.17,44.17,0,0,1-6.18,3.63l-.45-.25Z"/><g class="cls-6"><g class="cls-2"><path class="cls-1" d="M170,201.89l-.46-.25a44.22,44.22,0,0,0,5.93-3.45l.46.25a44.22,44.22,0,0,1-5.93,3.45"/><path class="cls-1" d="M176,198.45l-.46-.25.26-.18.46.25-.26.18"/></g></g></g><g class="cls-2"><path class="cls-1" d="M154.34,206l.2,0,.46.25-.2,0Z"/><g class="cls-7"><g class="cls-2"><path class="cls-1" d="M154.8,206.26l-.46-.25.2,0,.46.25-.2,0"/></g></g></g><g class="cls-2"><path class="cls-1" d="M154.14,206l.2,0,.46.25-.2,0Z"/><g class="cls-8"><g class="cls-2"><path class="cls-1" d="M154.6,206.28l-.46-.25.2,0,.46.25-.2,0"/></g></g></g><g class="cls-2"><path class="cls-1" d="M153.9,206.06l.24,0,.46.25-.24,0Z"/><g class="cls-9"><g class="cls-2"><path class="cls-1" d="M154.35,206.31l-.46-.25.24,0,.46.25-.24,0"/></g></g></g><g class="cls-2"><path class="cls-1" d="M152.72,206.18l1.18-.12.46.25-1.18.12-.38,0-1.53.11-.46-.25,1.53-.11Z"/><g class="cls-10"><g class="cls-2"><path class="cls-1" d="M151.27,206.57l-.46-.25,1.53-.11.38,0,1.18-.12.46.25-1.18.12-.38,0-1.53.11"/></g></g></g><g class="cls-2"><path class="cls-1" d="M149.57,206.64l-.46-.25h.47l.9,0h.33l.46.25h-.33l-.9,0Z"/><g class="cls-11"><g class="cls-2"><path class="cls-1" d="M149.57,206.64l-.46-.25h.47l.9,0h.33l.46.25h-.33l-.9,0h-.47"/></g></g></g><g class="cls-2"><path class="cls-1" d="M148.3,206.41l.82,0,.46.25-.82,0h-.08l-.09-.05-.2-.11h0l-.07,0s0,0-.07,0Z"/><g class="cls-12"><g class="cls-2"><path class="cls-1" d="M144.44,206.58l-.46-.25h.22l.51,0,.59,0h.38l.8,0h1.81l.82,0,.46.25-.82,0h-1.81l-.8,0h-.38l-.59,0-.51,0h-.22"/></g></g></g><g class="cls-2"><path class="cls-1" d="M148.22,206.41a.85.85,0,0,1,.19.1l.19.1.07,0h-.23l-.43-.24h.2Z"/><g class="cls-13"><g class="cls-2"><path class="cls-1" d="M144.44,206.58l-.46-.25h.22l.51,0,.59,0h.38l.8,0h1.81l.82,0,.46.25-.82,0h-1.81l-.8,0h-.38l-.59,0-.51,0h-.22"/></g></g></g><g class="cls-2"><path class="cls-1" d="M148,206.41h0l.43.24h-1.51l-.8,0h-.2l-.46-.25h.2l.8,0H148Z"/><g class="cls-14"><g class="cls-2"><path class="cls-1" d="M144.44,206.58l-.46-.25h.22l.51,0,.59,0h.38l.8,0h1.81l.82,0,.46.25-.82,0h-1.81l-.8,0h-.38l-.59,0-.51,0h-.22"/></g></g></g><g class="cls-2"><path class="cls-1" d="M145.49,206.39a.81.81,0,0,1,.17.09l.28.15h-.18l-.59,0-.51,0h-.22l-.46-.25h.22l.51,0,.59,0Z"/><g class="cls-15"><g class="cls-2"><path class="cls-1" d="M144.44,206.58l-.46-.25h.22l.51,0,.59,0h.38l.8,0h1.81l.82,0,.46.25-.82,0h-1.81l-.8,0h-.38l-.59,0-.51,0h-.22"/></g></g></g><g class="cls-2"><path class="cls-1" d="M143.57,206.3l.41,0,.46.25-.41,0-.31,0-.46-.25Z"/><g class="cls-16"><g class="cls-2"><path class="cls-1" d="M143.72,206.53l-.46-.25.31,0,.41,0,.46.25-.41,0-.31,0"/></g></g></g><g class="cls-2"><path class="cls-1" d="M143,206.26l.3,0,.46.25-.3,0Z"/><g class="cls-17"><g class="cls-2"><path class="cls-1" d="M143.42,206.51l-.46-.25.3,0,.46.25-.3,0"/></g></g></g><g class="cls-2"><path class="cls-1" d="M142.61,206.24l.35,0,.46.25-.35,0Z"/><g class="cls-18"><g class="cls-2"><path class="cls-1" d="M143.07,206.49l-.46-.25.35,0,.46.25-.35,0"/></g></g></g><g class="cls-2"><path class="cls-1" d="M142.43,206.22h.18l.46.25h-.18Z"/><g class="cls-19"><g class="cls-2"><path class="cls-1" d="M142.89,206.47l-.46-.25h.18l.46.25h-.18"/></g></g></g><polygon class="cls-1" points="123.68 235.77 123.22 235.53 150.81 206.32 151.27 206.57 123.68 235.77"/><path class="cls-1" d="M182.35,193.05l.28-.29-27.47,29a43.68,43.68,0,0,1-16.89,11.05l-1.14.4-.37.12-.78.25-.45.14-.72.21-.47.13-.72.19-.48.12-.75.17-.46.1-.88.18-.32.07-1.23.22-.17,0-1.06.16-.59.08-.53.07-.64.07-.51.06-.63.06-.54,0-.68,0-.48,0,27.59-29.2,1.53-.11.38,0,1.18-.12.24,0,.2,0,.2,0,.25,0,.59-.08,1-.16.51-.08,1-.18.62-.12.57-.12.67-.15.5-.12.69-.17.48-.13.67-.18.5-.15.64-.19.54-.17.58-.19,1.1-.39,1.14-.43.38-.15.74-.31.45-.2.65-.29.46-.22.29-.14.43-.21.28-.14,1-.51.24-.13.77-.43.29-.17,1-.57,1-.6.28-.19.74-.5.21-.14.89-.64.27-.2.65-.5.28-.22.85-.69.85-.73.28-.25.63-.58.21-.19.73-.7.34-.34Z"/><g class="cls-2"><path class="cls-1" d="M141.1,206.11l1.34.12.46.25-1.34-.12-.53-.06-.81-.09-.68-.08-.67-.09-.75-.11-.58-.09-.81-.13-.53-.09-.86-.15-.43-.08-.46-.25.43.08.86.15.53.09.81.13.58.09.75.11.67.09.68.08.81.09Z"/><g class="cls-20"><g class="cls-2"><path class="cls-1" d="M134.9,205.39l-.46-.25.43.08.86.15.53.09.81.13.58.09.75.11.67.09.68.08.81.09.53.06,1.34.12.46.25-1.34-.12-.53-.06-.81-.09-.68-.08-.67-.09-.75-.11-.58-.09-.81-.13-.53-.09-.86-.15-.43-.08"/></g></g></g><g class="cls-2"><path class="cls-1" d="M131,204.41q1.73.41,3.44.74l.46.25q-1.71-.33-3.44-.74l-.14,0-.46-.25Z"/><g class="cls-21"><g class="cls-2"><path class="cls-1" d="M131.32,204.62l-.46-.25.14,0q1.73.41,3.44.74l.46.25q-1.71-.33-3.44-.74l-.14,0"/></g></g></g><g class="cls-2"><path class="cls-1" d="M130.67,204.33l.19,0,.46.25-.19,0Z"/><g class="cls-22"><g class="cls-2"><path class="cls-1" d="M131.13,204.58l-.46-.25.19,0,.46.25-.19,0"/></g></g></g><polygon class="cls-1" points="103.48 233.78 103.02 233.53 130.67 204.33 131.13 204.58 103.48 233.78"/><g class="cls-2"><path class="cls-1" d="M130.13,204.19l.54.14.46.25-.54-.14Z"/><g class="cls-23"><g class="cls-2"><path class="cls-1" d="M130.59,204.44l-.46-.25.54.14.46.25-.54-.14"/></g></g></g><g class="cls-2"><path class="cls-1" d="M129.29,204l.85.21.46.25-.85-.21-.84-.22-1.51-.42-.51-.15-.46-.25.51.15,1.51.42Z"/><g class="cls-24"><g class="cls-2"><path class="cls-1" d="M126.89,203.43l-.46-.25.51.15,1.51.42.84.22h0l.46.25h0l-.84-.22-1.51-.42-.51-.15"/><path class="cls-1" d="M129.78,204.23l-.46-.25.81.21.46.25-.81-.21"/></g></g></g><g class="cls-2"><path class="cls-1" d="M125.93,203l.35.11.46.25-.35-.11Z"/><g class="cls-25"><g class="cls-2"><path class="cls-1" d="M126.38,203.28l-.46-.25.35.11.46.25-.35-.11"/></g></g></g><g class="cls-2"><path class="cls-1" d="M126.28,203.14l.16,0,.46.25-.16,0Z"/><g class="cls-26"><g class="cls-2"><path class="cls-1" d="M126.73,203.38l-.46-.25.16,0,.46.25-.16,0"/></g></g></g><g class="cls-2"><path class="cls-1" d="M125.74,203l.19.06.46.25-.19-.06Z"/><g class="cls-27"><g class="cls-2"><path class="cls-1" d="M126.19,203.22l-.46-.25.19.06.46.25-.19-.06"/></g></g></g><g class="cls-2"><path class="cls-1" d="M125.43,202.88l.3.09.46.25-.3-.09Z"/><g class="cls-28"><g class="cls-2"><path class="cls-1" d="M125.89,203.13l-.46-.25.3.09.46.25-.3-.09"/></g></g></g><g class="cls-2"><path class="cls-1" d="M125.12,202.78l.31.1.46.25-.31-.1Z"/><g class="cls-29"><g class="cls-2"><path class="cls-1" d="M125.58,203l-.46-.25.31.1.46.25-.31-.1"/></g></g></g><g class="cls-2"><path class="cls-1" d="M124.89,202.71l.23.07.46.25-.23-.07Z"/><g class="cls-30"><g class="cls-2"><path class="cls-1" d="M125.35,203l-.46-.25.23.07.46.25-.23-.07"/></g></g></g><g class="cls-2"><path class="cls-1" d="M124.23,202.5l.48.16.46.25-.48-.16Z"/><g class="cls-31"><g class="cls-2"><path class="cls-1" d="M124.69,202.74l-.46-.25.48.16.46.25-.48-.16"/></g></g></g><g class="cls-2"><path class="cls-1" d="M124.72,202.65l.18.06.46.25-.18-.06Z"/><g class="cls-32"><g class="cls-2"><path class="cls-1" d="M125.17,202.9l-.46-.25.18.06.46.25-.18-.06"/></g></g></g><g class="cls-2"><path class="cls-1" d="M124,202.42l.22.07.46.25-.22-.07Z"/><g class="cls-33"><g class="cls-2"><path class="cls-1" d="M124.47,202.67l-.46-.25.22.07.46.25-.22-.07"/></g></g></g><g class="cls-2"><path class="cls-1" d="M123.74,202.33l.28.09.46.25-.28-.09Z"/><g class="cls-34"><g class="cls-2"><path class="cls-1" d="M124.19,202.58l-.46-.25.28.09.46.25-.28-.09"/></g></g></g><g class="cls-2"><path class="cls-1" d="M123.27,202.17l.47.16.46.25-.47-.16Z"/><g class="cls-35"><g class="cls-2"><path class="cls-1" d="M123.72,202.42l-.46-.25.47.16.46.25-.47-.16"/></g></g></g><g class="cls-2"><path class="cls-1" d="M123,202.07l.32.11.46.25-.32-.11Z"/><g class="cls-36"><g class="cls-2"><path class="cls-1" d="M123.41,202.31l-.46-.25.32.11.46.25-.32-.11"/></g></g></g><g class="cls-2"><path class="cls-1" d="M122.77,202l.18.06.46.25-.18-.06Z"/><g class="cls-37"><g class="cls-2"><path class="cls-1" d="M123.23,202.25l-.46-.25.18.06.46.25-.18-.06"/></g></g></g><g class="cls-2"><path class="cls-1" d="M176.24,104.73l-.46-.25.57-.41c6.67-4.77,8.12-7.13,8.2-7.25l.46.25c-.08.12-1.53,2.48-8.2,7.25Z"/><g class="cls-38"><g class="cls-2"><path class="cls-1" d="M176.24,104.73l-.46-.25.57-.41a62.31,62.31,0,0,0,5.41-4.28l.46.25a62.31,62.31,0,0,1-5.41,4.28l-.57.41"/><path class="cls-1" d="M182.23,100l-.46-.25a25.28,25.28,0,0,0,2-2l.46.25a25.28,25.28,0,0,1-2,2"/><path class="cls-1" d="M184.26,98l-.46-.25a9.44,9.44,0,0,0,.65-.81l.46.25a9.44,9.44,0,0,1-.65.81"/><path class="cls-1" d="M184.91,97.22l-.46-.25.1-.16.46.25-.1.16"/></g></g></g><g class="cls-2"><path class="cls-1" d="M122.35,201.86l.42.15.46.25-.42-.15Z"/><g class="cls-39"><g class="cls-2"><path class="cls-1" d="M122.8,202.1l-.46-.25.42.15.46.25-.42-.15"/></g></g></g><g class="cls-2"><path class="cls-1" d="M121.91,201.7l.44.16.46.25-.44-.16Z"/><g class="cls-40"><g class="cls-2"><path class="cls-1" d="M122.36,201.95l-.46-.25.44.16.46.25-.44-.16"/></g></g></g><g class="cls-2"><path class="cls-1" d="M121.17,201.43l.74.27.46.25-.74-.27Z"/><g class="cls-41"><g class="cls-2"><path class="cls-1" d="M121.63,201.68l-.46-.25.74.27.46.25-.74-.27"/></g></g></g><path class="cls-1" d="M149.57,206.64H150l.9,0h.33l-27.65,29.21h-.13l-1.59.07h-3l-1,0-.62,0-.51,0-1.7-.11-1.73-.16-.31,0-1.73-.21-.18,0-1.56-.23-.6-.1-.15,0-1.17-.21-1.35-.26-1-.21-.47-.1-.85-.2-.38-.09-.12,0,27.65-29.2.19,0,.14,0q1.73.41,3.44.74l.43.08.86.15.53.09.81.13.58.09.75.11.67.09.68.08.81.09.53.06,1.34.12h.18l.35,0,.3,0,.31,0,.41,0h.22l.51,0,.59,0h.38l.8,0h1.81Z"/><g class="cls-2"><path class="cls-1" d="M120.14,201l1,.38.46.25-1-.38Z"/><g class="cls-42"><g class="cls-2"><path class="cls-1" d="M120.6,201.3l-.46-.25,1,.38.46.25-1-.38"/></g></g></g><g class="cls-2"><path class="cls-1" d="M119.47,200.79l.67.26.46.25-.67-.26Z"/><g class="cls-43"><g class="cls-2"><path class="cls-1" d="M119.93,201l-.46-.25.67.26.46.25-.67-.26"/></g></g></g><g class="cls-2"><path class="cls-1" d="M118.33,200.34l1.14.45.46.25-1.14-.45Z"/><g class="cls-44"><g class="cls-2"><path class="cls-1" d="M118.79,200.59l-.46-.25,1.14.45.46.25-1.14-.45"/></g></g></g><g class="cls-2"><path class="cls-1" d="M117.77,200.12l.56.23.46.25-.56-.23Z"/><g class="cls-45"><g class="cls-2"><path class="cls-1" d="M118.22,200.36l-.46-.25.56.23.46.25-.56-.23"/></g></g></g><g class="cls-2"><path class="cls-1" d="M116.4,199.55l1.36.57.46.25-1.36-.57Z"/><g class="cls-46"><g class="cls-2"><path class="cls-1" d="M116.86,199.79l-.46-.25,1.36.57.46.25-1.36-.57"/></g></g></g><g class="cls-2"><path class="cls-1" d="M116.07,199.4l.34.14.46.25-.34-.14Z"/><g class="cls-47"><g class="cls-2"><path class="cls-1" d="M116.52,199.65l-.46-.25.34.14.46.25-.34-.14"/></g></g></g><g class="cls-2"><path class="cls-1" d="M113.06,198.05c1,.47,2,.92,3,1.35l.46.25c-1-.43-2-.88-3-1.35Z"/><g class="cls-48"><g class="cls-2"><path class="cls-1" d="M111.63,197.4l-.46-.25c1.65.81,3.27,1.56,4.89,2.26l.46.25c-1.62-.7-3.24-1.44-4.89-2.26"/></g></g></g><g class="cls-2"><path class="cls-1" d="M113.06,198.05l.46.25-.92-.44-.46-.25Z"/><g class="cls-49"><g class="cls-2"><path class="cls-1" d="M111.63,197.4l-.46-.25c1.65.81,3.27,1.56,4.89,2.26l.46.25c-1.62-.7-3.24-1.44-4.89-2.26"/></g></g></g><polygon class="cls-1" points="142.53 113.84 142.08 113.59 169.72 84.39 170.18 84.64 142.53 113.84"/><g class="cls-2"><path class="cls-1" d="M170,85.14C158.19,54.84,134.21,27,106.8,12.06l.46.25c27.41,14.92,51.39,42.78,63.22,73.08l-.23-.12-.06,0-.09,0A.25.25,0,0,1,170,85.14Z"/><g class="cls-50"><g class="cls-2"><path class="cls-1" d="M176.24,104.73l-.46-.25c-7.66-37.35-35.82-74.37-69-92.42l.46.25c33.18,18.05,61.34,55.08,69,92.42"/></g></g></g><g class="cls-2"><path class="cls-1" d="M103.11,10.15l1.51.76.46.25-1.5-.76Z"/><g class="cls-51"><g class="cls-2"><path class="cls-1" d="M103.24,10.24l-.46-.25,1.82.92.46.25-1.82-.92"/></g></g></g><g class="cls-2"><path class="cls-1" d="M103.11,10.15l.46.25L102,9.65l-.46-.25Z"/><g class="cls-52"><g class="cls-2"><path class="cls-1" d="M96.81,7.34l-.46-.25,1.28.53q2.6,1.11,5.15,2.37l.46.25Q100.69,9,98.09,7.87l-1.28-.53"/><path class="cls-1" d="M103.24,10.24l-.46-.25,1.82.92.46.25-1.82-.92"/></g></g></g><g class="cls-2"><path class="cls-1" d="M101.59,9.41l.46.25q-2-.94-4-1.78l-1.28-.53-.46-.25,1.28.53Q99.62,8.47,101.59,9.41Z"/><g class="cls-53"><g class="cls-2"><path class="cls-1" d="M96.81,7.34l-.46-.25,1.28.53q2.6,1.11,5.15,2.37l.46.25Q100.69,9,98.09,7.87l-1.28-.53"/></g></g></g><g class="cls-2"><path class="cls-1" d="M95.71,6.83l.65.27.46.25-.65-.27Z"/><g class="cls-54"><g class="cls-2"><path class="cls-1" d="M96.16,7.08l-.46-.25.65.27.46.25-.65-.27"/></g></g></g><polygon class="cls-1" points="77.42 40.36 76.97 40.11 104.61 10.91 105.07 11.16 77.42 40.36"/><g class="cls-2"><path class="cls-1" d="M94.62,6.4l1.09.43.46.25-1.09-.43Z"/><g class="cls-55"><g class="cls-2"><path class="cls-1" d="M95.08,6.65l-.46-.25,1.09.43.46.25-1.09-.43"/></g></g></g><g class="cls-2"><path class="cls-1" d="M93.77,6.08l.85.33.46.25-.85-.33Z"/><g class="cls-56"><g class="cls-2"><path class="cls-1" d="M94.22,6.32l-.46-.25.85.33.46.25-.85-.33"/></g></g></g><g class="cls-2"><path class="cls-1" d="M92.79,5.72l1,.36.46.25-1-.36-1-.35-.87-.3-1.72-.57-2-.61-.46-.25,2,.61,1.72.57.87.3Z"/><g class="cls-57"><g class="cls-2"><path class="cls-1" d="M85.2,3.46l-.46-.25.88.23,1.58.44,2,.61,1.72.57.87.3,1,.35,1,.36.46.25-1-.36-1-.35-.87-.3-1.72-.57-2-.61-1.58-.44-.88-.23"/></g></g></g><g class="cls-2"><path class="cls-1" d="M87.21,3.88h0l.46.25h0l-.46-.25Z"/><g class="cls-58"><g class="cls-2"><path class="cls-1" d="M85.2,3.46l-.46-.25.88.23,1.58.44,2,.61,1.72.57.87.3,1,.35,1,.36.46.25-1-.36-1-.35-.87-.3-1.72-.57-2-.61-1.58-.44-.88-.23"/></g></g></g><g class="cls-2"><path class="cls-1" d="M87.18,3.87h0l.45.25-1.56-.43L85,3.4l-.78-.2L83.75,3l.78.2,1.1.29Z"/><g class="cls-59"><g class="cls-2"><path class="cls-1" d="M83.86,3.12l-.46-.25,1.13.28.22.06.46.25L85,3.4l-1.13-.28"/><path class="cls-1" d="M85.2,3.46l-.46-.25.88.23,1.58.44,2,.61,1.72.57.87.3,1,.35,1,.36.46.25-1-.36-1-.35-.87-.3-1.72-.57-2-.61-1.58-.44-.88-.23"/></g></g></g><g class="cls-2"><path class="cls-1" d="M83.75,3l.14.08.31.17-.35-.09-.46-.25Z"/><g class="cls-60"><g class="cls-2"><path class="cls-1" d="M83.86,3.12l-.46-.25,1.13.28.22.06.46.25L85,3.4l-1.13-.28"/></g></g></g><g class="cls-2"><path class="cls-1" d="M79.17,41.28l.46.25.58.32-.46-.25Z"/><g class="cls-61"><g class="cls-2"><path class="cls-1" d="M80.2,41.84l-.46-.25-.58-.32.46.25.58.32"/></g></g></g><path class="cls-1" d="M170.05,84.32l.13.32-27.64,29.2-.17-.42-.23-.56q-.34-.85-.7-1.69c-.36-.86-.63-1.46-.89-2.06l-.24-.53q-.39-.86-.78-1.72c-.37-.8-.66-1.41-1-2l-.26-.53q-.42-.87-.86-1.73c-.38-.75-.7-1.36-1-2l-.27-.51q-.46-.87-.93-1.73c-.4-.72-.74-1.33-1.08-1.93l-.28-.48-1-1.71c-.42-.72-.79-1.32-1.15-1.91l-.28-.46q-.55-.89-1.11-1.77c-.4-.62-.78-1.22-1.17-1.81l-.29-.44q-1.18-1.79-2.42-3.54l-.27-.38q-1.24-1.76-2.54-3.48l-.29-.39q-1.31-1.73-2.66-3.41l-.27-.34q-1.36-1.68-2.76-3.33l-.32-.37q-1.41-1.64-2.86-3.23l-.28-.31q-1.46-1.6-3-3.15l-.31-.32q-1.5-1.53-3-3l-.34-.33q-1.54-1.48-3.12-2.91l-.32-.29q-1.58-1.42-3.19-2.79l-.36-.3L99,54.62,97.33,53.3,97,53l-1.62-1.26L93.66,50.5l-.4-.3L91.63,49l-1.72-1.19-.41-.28-1.62-1.08-1.75-1.13-.47-.29-1.57-1L82.27,43l-.48-.28-1.58-.89-1.84-1-.52-.27-.42-.22,27.64-29.2q2.68,1.38,5.33,2.93c1.43.84,2.67,1.6,3.9,2.39l.32.2q1.76,1.13,3.5,2.34l.44.31,1.08.76c.77.55,1.5,1.09,2.23,1.63l.55.41,1,.73.56.44,1.59,1.26.63.5.88.72.72.6L129,27.42l.84.72.76.67.81.72.84.76,1.17,1.07.66.62.89.85.6.58,1.31,1.29.59.59.92.94.54.56,1.34,1.4.41.44,1,1.13.47.51,1.34,1.49.25.29L145,43.37l.39.45,1.18,1.4.34.41,1.32,1.61,1.4,1.77.32.42.89,1.16.78,1,.69.93.76,1,.68.94.75,1.07.65.94.74,1.1.63.94.73,1.11.62,1,.72,1.14.58.92.76,1.24.51.84.77,1.32.46.79.88,1.56.32.56q.59,1.07,1.16,2.15l.15.28q.49.93,1,1.87l.34.68c.25.5.5,1,.74,1.5l.36.76.67,1.42.39.85.61,1.35.39.91.56,1.3.39.94Z"/><polygon class="cls-1" points="56.21 32.32 55.75 32.07 83.4 2.87 83.86 3.12 56.21 32.32"/><g class="cls-2"><path class="cls-1" d="M83.69,3.08l-.46-.25.17,0,.46.25Z"/><g class="cls-62"><g class="cls-2"><path class="cls-1" d="M83.69,3.08l-.46-.25.17,0,.46.25-.17,0"/></g></g></g><g class="cls-2"><path class="cls-1" d="M82.64,2.69l.59.14.46.25-.59-.14-1.28-.29-.57-.12-.91-.18-.46-.25.91.18.57.12Z"/><g class="cls-63"><g class="cls-2"><path class="cls-1" d="M63.85,1.12,63.39.87h.12L64.85.81l.62,0h2l1.14,0,.65,0L70.69.9l.69,0,1,.08.7.06,1.46.16.72.09,1.13.16.9.14,1.2.2.73.13,1.55.3.57.12,1.28.29.59.14.46.25-.59-.14-1.28-.29-.57-.12-1.55-.3L79,2.09l-1.2-.2-.9-.14L75.73,1.6,75,1.5l-1.46-.16-.7-.06-1-.08-.69,0-1.45-.07-.65,0L67.9,1h-2l-.62,0L64,1.12h-.12"/></g></g></g><g class="cls-2"><path class="cls-1" d="M79.88,2.1a1.39,1.39,0,0,1,.19.1l.27.15L80,2.29,79.57,2Z"/><g class="cls-64"><g class="cls-2"><path class="cls-1" d="M63.85,1.12,63.39.87h.12L64.85.81l.62,0h2l1.14,0,.65,0L70.69.9l.69,0,1,.08.7.06,1.46.16.72.09,1.13.16.9.14,1.2.2.73.13,1.55.3.57.12,1.28.29.59.14.46.25-.59-.14-1.28-.29-.57-.12-1.55-.3L79,2.09l-1.2-.2-.9-.14L75.73,1.6,75,1.5l-1.46-.16-.7-.06-1-.08-.69,0-1.45-.07-.65,0L67.9,1h-2l-.62,0L64,1.12h-.12"/></g></g></g><g class="cls-2"><path class="cls-1" d="M79.57,2h0l.45.24-.33-.06L79,2.09l-1.2-.2-.9-.14L75.73,1.6,75,1.5l-1.46-.16-.47,0-.46-.25.47,0,1.46.16.72.09,1.13.16.9.14,1.2.2.73.13Z"/><g class="cls-65"><g class="cls-2"><path class="cls-1" d="M63.85,1.12,63.39.87h.12L64.85.81l.62,0h2l1.14,0,.65,0L70.69.9l.69,0,1,.08.7.06,1.46.16.72.09,1.13.16.9.14,1.2.2.73.13,1.55.3.57.12,1.28.29.59.14.46.25-.59-.14-1.28-.29-.57-.12-1.55-.3L79,2.09l-1.2-.2-.9-.14L75.73,1.6,75,1.5l-1.46-.16-.7-.06-1-.08-.69,0-1.45-.07-.65,0L67.9,1h-2l-.62,0L64,1.12h-.12"/></g></g></g><g class="cls-2"><path class="cls-1" d="M72.61,1.05a.8.8,0,0,1,.15.08l.31.17-.22,0h0L72.36,1h0Z"/><g class="cls-66"><g class="cls-2"><path class="cls-1" d="M63.85,1.12,63.39.87h.12L64.85.81l.62,0h2l1.14,0,.65,0L70.69.9l.69,0,1,.08.7.06,1.46.16.72.09,1.13.16.9.14,1.2.2.73.13,1.55.3.57.12,1.28.29.59.14.46.25-.59-.14-1.28-.29-.57-.12-1.55-.3L79,2.09l-1.2-.2-.9-.14L75.73,1.6,75,1.5l-1.46-.16-.7-.06-1-.08-.69,0-1.45-.07-.65,0L67.9,1h-2l-.62,0L64,1.12h-.12"/></g></g></g><g class="cls-2"><path class="cls-1" d="M72.36,1h0l.45.24-1-.08-.69,0-1.45-.07-.65,0L67.9,1H66.13L65.68.79h1.77l1.14,0,.65,0L70.69.9l.69,0Z"/><g class="cls-67"><g class="cls-2"><path class="cls-1" d="M63.85,1.12,63.39.87h.12L64.85.81l.62,0h2l1.14,0,.65,0L70.69.9l.69,0,1,.08.7.06,1.46.16.72.09,1.13.16.9.14,1.2.2.73.13,1.55.3.57.12,1.28.29.59.14.46.25-.59-.14-1.28-.29-.57-.12-1.55-.3L79,2.09l-1.2-.2-.9-.14L75.73,1.6,75,1.5l-1.46-.16-.7-.06-1-.08-.69,0-1.45-.07-.65,0L67.9,1h-2l-.62,0L64,1.12h-.12"/></g></g></g><g class="cls-2"><path class="cls-1" d="M65.68.79l.07,0,.38.21h-.23L65.45.79h.23Z"/><g class="cls-68"><g class="cls-2"><path class="cls-1" d="M63.85,1.12,63.39.87h.12L64.85.81l.62,0h2l1.14,0,.65,0L70.69.9l.69,0,1,.08.7.06,1.46.16.72.09,1.13.16.9.14,1.2.2.73.13,1.55.3.57.12,1.28.29.59.14.46.25-.59-.14-1.28-.29-.57-.12-1.55-.3L79,2.09l-1.2-.2-.9-.14L75.73,1.6,75,1.5l-1.46-.16-.7-.06-1-.08-.69,0-1.45-.07-.65,0L67.9,1h-2l-.62,0L64,1.12h-.12"/></g></g></g><g class="cls-2"><path class="cls-1" d="M65.45.79h0l.45.24-.6,0L64,1.12h-.12L63.39.87h.12L64.85.81Z"/><g class="cls-69"><g class="cls-2"><path class="cls-1" d="M63.85,1.12,63.39.87h.12L64.85.81l.62,0h2l1.14,0,.65,0L70.69.9l.69,0,1,.08.7.06,1.46.16.72.09,1.13.16.9.14,1.2.2.73.13,1.55.3.57.12,1.28.29.59.14.46.25-.59-.14-1.28-.29-.57-.12-1.55-.3L79,2.09l-1.2-.2-.9-.14L75.73,1.6,75,1.5l-1.46-.16-.7-.06-1-.08-.69,0-1.45-.07-.65,0L67.9,1h-2l-.62,0L64,1.12h-.12"/></g></g></g><g class="cls-2"><path class="cls-1" d="M87.11,3.13a98.51,98.51,0,0,1,17.33,7l.46.25a98.51,98.51,0,0,0-17.33-7,71.34,71.34,0,0,0-24.15-3L63,.1A71.34,71.34,0,0,1,87.11,3.13Z"/><g class="cls-70"><g class="cls-2"><path class="cls-1" d="M59,.79,58.59.54a66.78,66.78,0,0,1,26,1.91l.46.25A66.78,66.78,0,0,0,59,.79"/><path class="cls-1" d="M85.07,2.69l-.46-.25q1.24.32,2.49.69A97.5,97.5,0,0,1,102.85,9.3l.46.25A97.5,97.5,0,0,0,87.57,3.38Q86.31,3,85.07,2.69"/><path class="cls-1" d="M103.3,9.55l-.46-.25q2,1,4,2.08l.46.25q-2-1.08-4-2.08"/></g></g></g><path class="cls-1" d="M62.78,34.2,62.14,34q-1.07-.34-2.13-.65l-2-.56-.64-.16-1.14-.29L83.86,3.12,85,3.4l1.1.29,1.58.44,2,.61,1.72.57.87.3,1,.35,1,.36.85.33,1.09.43.65.27,1.28.53q3.52,1.5,7,3.28L77.42,40.36l-.52-.26-1.25-.63-.83-.41-1.25-.59-.84-.39-1.26-.56-.84-.37-1.27-.53-.85-.35-1.27-.5-.85-.32L65.06,35l-.79-.28Z"/><polygon class="cls-1" points="36.2 30.32 35.74 30.07 63.39 0.87 63.85 1.12 36.2 30.32"/><g class="cls-2"><path class="cls-1" d="M62.93.91l.47,0,.46.25-.47,0-1.12.08-.56,0-1.4.15-.52.07-.27,0-.46-.25.27,0,.52-.07L61.25,1l.56,0Z"/><g class="cls-71"><g class="cls-2"><path class="cls-1" d="M45.8,5.54l-.46-.25L46,5l.26-.12,1.22-.52.66-.26L49,3.77l.69-.25.84-.28L51.24,3l.88-.26.7-.2,1-.27,1-.24,1.07-.23.81-.15.83-.15.85-.13.91-.13.52-.07L61.25,1l.56,0L62.93.91l.47,0,.46.25-.47,0-1.12.08-.56,0-1.4.15-.52.07-.91.13L58,1.77l-.83.15-.81.15-1.07.23-1,.24-1,.27-.7.2-.88.26L51,3.49l-.84.28L49.45,4l-.84.32L48,4.6l-1.22.52-.26.12-.67.31"/></g></g></g><g class="cls-2"><path class="cls-1" d="M59.06,1.3a.27.27,0,0,1,.08,0l.08,0,.16.09.13.07-.24,0-.46-.25Z"/><g class="cls-72"><g class="cls-2"><path class="cls-1" d="M45.8,5.54l-.46-.25L46,5l.26-.12,1.22-.52.66-.26L49,3.77l.69-.25.84-.28L51.24,3l.88-.26.7-.2,1-.27,1-.24,1.07-.23.81-.15.83-.15.85-.13.91-.13.52-.07L61.25,1l.56,0L62.93.91l.47,0,.46.25-.47,0-1.12.08-.56,0-1.4.15-.52.07-.91.13L58,1.77l-.83.15-.81.15-1.07.23-1,.24-1,.27-.7.2-.88.26L51,3.49l-.84.28L49.45,4l-.84.32L48,4.6l-1.22.52-.26.12-.67.31"/></g></g></g><g class="cls-2"><path class="cls-1" d="M58.82,1.33h0l.45.24-.4.06L58,1.77l-.83.15-.81.15-1.07.23-1,.24-1,.27-.7.2-.88.26L51.24,3l.88-.26.7-.2,1-.27,1-.24,1.07-.23.81-.15.83-.15.85-.13Z"/><g class="cls-73"><g class="cls-2"><path class="cls-1" d="M45.8,5.54l-.46-.25L46,5l.26-.12,1.22-.52.66-.26L49,3.77l.69-.25.84-.28L51.24,3l.88-.26.7-.2,1-.27,1-.24,1.07-.23.81-.15.83-.15.85-.13.91-.13.52-.07L61.25,1l.56,0L62.93.91l.47,0,.46.25-.47,0-1.12.08-.56,0-1.4.15-.52.07-.91.13L58,1.77l-.83.15-.81.15-1.07.23-1,.24-1,.27-.7.2-.88.26L51,3.49l-.84.28L49.45,4l-.84.32L48,4.6l-1.22.52-.26.12-.67.31"/></g></g></g><g class="cls-2"><path class="cls-1" d="M51.1,3.06l.14,0,.46.25-.14,0Z"/><g class="cls-74"><g class="cls-2"><path class="cls-1" d="M45.8,5.54l-.46-.25L46,5l.26-.12,1.22-.52.66-.26L49,3.77l.69-.25.84-.28L51.24,3l.88-.26.7-.2,1-.27,1-.24,1.07-.23.81-.15.83-.15.85-.13.91-.13.52-.07L61.25,1l.56,0L62.93.91l.47,0,.46.25-.47,0-1.12.08-.56,0-1.4.15-.52.07-.91.13L58,1.77l-.83.15-.81.15-1.07.23-1,.24-1,.27-.7.2-.88.26L51,3.49l-.84.28L49.45,4l-.84.32L48,4.6l-1.22.52-.26.12-.67.31"/></g></g></g><g class="cls-2"><path class="cls-1" d="M51.1,3.06l.46.25L51,3.49l-.84.28L49.45,4l-.84.32L48,4.6l-1.22.52-.26.12-1.17.55L44.88,6l-.28.14-.11-.06-.35-.19.28-.14.42-.21L46,5l.26-.12,1.22-.52.66-.26L49,3.77l.69-.25.84-.28Z"/><g class="cls-75"><g class="cls-2"><path class="cls-1" d="M39.65,9.08l-.46-.25.9-.61.2-.13,1.16-.72.4-.24L43,6.49l.23-.13,1.21-.62.42-.21.5-.24.46.25-.5.24L44.88,6l-1.21.62-.23.13-1.13.64-.4.24-1.16.72-.2.13-.9.61"/><path class="cls-1" d="M45.8,5.54l-.46-.25L46,5l.26-.12,1.22-.52.66-.26L49,3.77l.69-.25.84-.28L51.24,3l.88-.26.7-.2,1-.27,1-.24,1.07-.23.81-.15.83-.15.85-.13.91-.13.52-.07L61.25,1l.56,0L62.93.91l.47,0,.46.25-.47,0-1.12.08-.56,0-1.4.15-.52.07-.91.13L58,1.77l-.83.15-.81.15-1.07.23-1,.24-1,.27-.7.2-.88.26L51,3.49l-.84.28L49.45,4l-.84.32L48,4.6l-1.22.52-.26.12-.67.31"/></g></g></g><g class="cls-2"><path class="cls-1" d="M31.92,15.16l.46.25a46.19,46.19,0,0,0-3.66,4.53l-.46-.25A46.19,46.19,0,0,1,31.92,15.16Z"/><g class="cls-76"><g class="cls-2"><path class="cls-1" d="M28.71,19.93l-.46-.25a46.43,46.43,0,0,1,3.06-3.86l.46.25a46.43,46.43,0,0,0-3.06,3.86"/><path class="cls-1" d="M31.77,16.08l-.46-.25.61-.67.46.25-.61.67"/></g></g></g><polygon class="cls-1" points="28.71 19.93 28.26 19.68 27.65 19.08 28.11 19.33 28.71 19.93"/><polygon class="cls-1" points="9.86 39.85 9.4 39.61 28.26 19.68 28.71 19.93 9.86 39.85"/><polygon class="cls-1" points="28.11 19.33 28.71 19.93 9.86 39.85 1.07 49.13 0.46 48.53 28.11 19.33"/><path class="cls-1" d="M28.71,19.93a46.19,46.19,0,0,1,3.66-4.53l.45-.47c.35-.37.71-.73,1.07-1.09l.28-.27c.36-.35.72-.69,1.09-1s.78-.69,1.16-1l.31-.26c.36-.3.73-.6,1.1-.88s.87-.65,1.25-.93l.36-.26,1.1-.75.2-.13,1.16-.72.4-.24,1.13-.64.23-.13L44.88,6l.42-.21,1.17-.55.26-.12L48,4.6l.66-.26L49.45,4l.69-.25L51,3.49l.71-.23L52.57,3l.7-.2,1-.27,1-.24,1.07-.23.81-.15L58,1.77l.85-.13.91-.13.52-.07,1.4-.15.56,0,1.12-.08.47,0L36.2,30.32l-.23,0-1.51.11-.31,0-1.57.17-.33,0-.51.07-.91.14-.22,0-1.55.28-.39.08-1.28.28-.31.07-1.5.38-.33.09L24,32.47l-.36.11L22.32,33l-.14,0-.21.07-.74.28-.83.32-.8.34-.77.33-.83.39-.71.34-.83.43-.69.36-.81.46-.67.39-.78.49-.66.42-.75.51-.66.46-.71.53-.66.5-.21.16Z"/><path class="cls-1" d="M83.69,3.08l.17,0L56.21,32.32,56,32.26l-.37-.09-1.66-.37-.24-.05-1.78-.35-.44-.08L49.7,31l-.13,0-1.64-.23-.45-.06-1.68-.19-.37,0L44,30.38l-.38,0-1.64-.08h-.42l-1.48,0h-.24l-1.63,0h-.41l-1.57.07L63.85,1.12H64l1.34-.06.62,0h2l1.14,0,.65,0,1.45.07.69,0,1,.08.7.06L75,1.5l.72.09,1.13.16.9.14,1.2.2.73.13,1.55.3.57.12,1.28.29Z"/><g class="cls-2"><path class="cls-1" d="M44.14,5.88l.46.25-.2.1L43.94,6Z"/><g class="cls-77"><g class="cls-2"><path class="cls-1" d="M39.65,9.08l-.46-.25.9-.61.2-.13,1.16-.72.4-.24L43,6.49l.23-.13,1.21-.62.42-.21.5-.24.46.25-.5.24L44.88,6l-1.21.62-.23.13-1.13.64-.4.24-1.16.72-.2.13-.9.61"/></g></g></g><g class="cls-2"><path class="cls-1" d="M43.94,6l.46.25-.72.38-.23.13-1.13.64-.4.24-1.16.72-.2.13-1.1.75-.36.26-.89.65-.46-.25.89-.65L39,9l1.1-.75.2-.13,1.16-.72.4-.24L43,6.49l.23-.13Z"/><g class="cls-78"><g class="cls-2"><path class="cls-1" d="M35.31,12.5l-.46-.25c.38-.35.75-.66,1.11-1l.31-.26c.36-.3.73-.6,1.1-.88s.87-.65,1.25-.93L39,9l.2-.14.46.25-.2.14-.36.26c-.39.28-.77.56-1.25.93s-.74.58-1.1.88l-.31.26c-.37.31-.73.62-1.11,1"/><path class="cls-1" d="M39.65,9.08l-.46-.25.9-.61.2-.13,1.16-.72.4-.24L43,6.49l.23-.13,1.21-.62.42-.21.5-.24.46.25-.5.24L44.88,6l-1.21.62-.23.13-1.13.64-.4.24-1.16.72-.2.13-.9.61"/></g></g></g><g class="cls-2"><path class="cls-1" d="M37.74,9.87l.46.25-.19.14L37.55,10Z"/><g class="cls-79"><g class="cls-2"><path class="cls-1" d="M35.31,12.5l-.46-.25c.38-.35.75-.66,1.11-1l.31-.26c.36-.3.73-.6,1.1-.88s.87-.65,1.25-.93L39,9l.2-.14.46.25-.2.14-.36.26c-.39.28-.77.56-1.25.93s-.74.58-1.1.88l-.31.26c-.37.31-.73.62-1.11,1"/></g></g></g><g class="cls-2"><path class="cls-1" d="M37.55,10l.46.25-.17.13c-.37.29-.74.58-1.1.88l-.31.26c-.38.32-.76.64-1.16,1s-.73.67-1.09,1l-.28.27c-.36.36-.72.72-1.07,1.09l-.46-.25c.35-.37.71-.73,1.07-1.09l.28-.27c.36-.35.72-.69,1.09-1s.78-.69,1.16-1l.31-.26c.36-.3.73-.6,1.1-.88Z"/><g class="cls-80"><g class="cls-2"><path class="cls-1" d="M32.82,14.93l-.46-.25c.35-.37.71-.73,1.07-1.09l.28-.27c.36-.35.72-.69,1.09-1l0,0,.46.25,0,0c-.37.33-.73.67-1.09,1l-.28.27c-.36.36-.72.72-1.07,1.09"/><path class="cls-1" d="M35.31,12.5l-.46-.25c.38-.35.75-.66,1.11-1l.31-.26c.36-.3.73-.6,1.1-.88s.87-.65,1.25-.93L39,9l.2-.14.46.25-.2.14-.36.26c-.39.28-.77.56-1.25.93s-.74.58-1.1.88l-.31.26c-.37.31-.73.62-1.11,1"/></g></g></g><polygon class="cls-1" points="32.38 15.4 31.92 15.15 32.37 14.68 32.82 14.93 32.38 15.4"/><g class="cls-2"><path class="cls-1" d="M31.35,14.5A45,45,0,0,1,58.59.54L59,.79a45,45,0,0,0-27.24,14Z"/><g class="cls-81"><g class="cls-2"><path class="cls-1" d="M31.19,15.43l-.46-.25.61-.68q1.37-1.46,2.83-2.77l.46.25q-1.45,1.31-2.83,2.77l-.61.68"/><path class="cls-1" d="M34.64,12l-.46-.25a45.33,45.33,0,0,1,4.54-3.59l.46.25A45.33,45.33,0,0,0,34.64,12"/><path class="cls-1" d="M39.18,8.39l-.46-.25A43.8,43.8,0,0,1,45,4.54l.46.25a43.8,43.8,0,0,0-6.25,3.6"/><path class="cls-1" d="M45.43,4.78,45,4.54a47.16,47.16,0,0,1,13.62-4L59,.79a47.16,47.16,0,0,0-13.62,4"/></g></g></g><g class="cls-2"><path class="cls-1" d="M31.32,14.53l0,0,.46.25,0,0Z"/><g class="cls-82"><g class="cls-2"><path class="cls-1" d="M31.19,15.43l-.46-.25.61-.68q1.37-1.46,2.83-2.77l.46.25q-1.45,1.31-2.83,2.77l-.61.68"/></g></g></g><g class="cls-2"><path class="cls-1" d="M31.32,14.53l.46.25q-.95,1-1.84,2.13l-.46-.25Q30.38,15.56,31.32,14.53Z"/><g class="cls-83"><g class="cls-2"><path class="cls-1" d="M28.11,19.33l-.46-.25a46.83,46.83,0,0,1,3.09-3.9l.46.25a46.83,46.83,0,0,0-3.09,3.9"/><path class="cls-1" d="M31.19,15.43l-.46-.25.61-.68q1.37-1.46,2.83-2.77l.46.25q-1.45,1.31-2.83,2.77l-.61.68"/></g></g></g><g class="cls-2"><path class="cls-1" d="M29.49,16.66l.46.25-.13.16-.46-.25Z"/><g class="cls-84"><g class="cls-2"><path class="cls-1" d="M28.11,19.33l-.46-.25a46.83,46.83,0,0,1,3.09-3.9l.46.25a46.83,46.83,0,0,0-3.09,3.9"/></g></g></g><g class="cls-2"><path class="cls-1" d="M29.36,16.82l.46.25q-.88,1.09-1.71,2.26l-.46-.25Q28.48,17.92,29.36,16.82Z"/><g class="cls-85"><g class="cls-2"><path class="cls-1" d="M28.11,19.33l-.46-.25a46.83,46.83,0,0,1,3.09-3.9l.46.25a46.83,46.83,0,0,0-3.09,3.9"/></g></g></g><polygon class="cls-1" points="0.46 48.53 0 48.28 27.65 19.08 28.11 19.33 0.46 48.53"/><path class="cls-1" d="M29.37,17.64l-.33.42q-.48.63-.93,1.27L.46,48.53A45.64,45.64,0,0,1,4.6,43.48l27.65-29.2-.11.12-.3.32-.39.43-.45.5-.59.69-.41.49Z"/><path class="cls-1" d="M87.57,3.38C77.34.4,67.71-.43,59,.79a45,45,0,0,0-27.24,14,46.57,46.57,0,0,0-3.7,4.58l.61.61a46.17,46.17,0,0,1,3.66-4.53,44.25,44.25,0,0,1,27-13.85C68,.35,77.52,1.17,87.66,4.13q1.09.32,2.18.67l.32.1c29.72,9.62,57.64,35.71,73.8,66.28h0a126.86,126.86,0,0,1,12.28,33.53l.57-.41C167.4,59.59,128.94,15.44,87.57,3.38Z"/><g class="cls-2"><path class="cls-1" d="M176.24,104.73a119.13,119.13,0,0,0-5.77-19.34l-.46-.25a119.13,119.13,0,0,1,5.77,19.34h0Z"/><g class="cls-86"><g class="cls-2"><path class="cls-1" d="M176.24,104.73l-.46-.25c-7.66-37.35-35.82-74.37-69-92.42l.46.25c33.18,18.05,61.34,55.08,69,92.42"/></g></g></g><g class="cls-2"><path class="cls-1" d="M112.14,197.61l.46.25-1.43-.7-1.27-.64-.46-.25,1.27.64Z"/><g class="cls-87"><g class="cls-2"><path class="cls-1" d="M109.9,196.52l-.46-.25,1.27.64.47.23.46.25-.47-.23-1.27-.64"/><path class="cls-1" d="M111.63,197.4l-.46-.25c1.65.81,3.27,1.56,4.89,2.26l.46.25c-1.62-.7-3.24-1.44-4.89-2.26"/></g></g></g><g class="cls-2"><path class="cls-1" d="M107.89,195.46l1.55.81.46.25-1.55-.81Z"/><g class="cls-88"><g class="cls-2"><path class="cls-1" d="M107.6,195.31l-.46-.25q1.15.62,2.3,1.22l.46.25q-1.15-.59-2.3-1.22"/></g></g></g><g class="cls-2"><path class="cls-1" d="M107.89,195.46l.46.25-.75-.41-.46-.25Z"/><g class="cls-89"><g class="cls-2"><path class="cls-1" d="M107.6,195.31l-.46-.25q1.15.62,2.3,1.22l.46.25q-1.15-.59-2.3-1.22"/></g></g></g><path class="cls-1" d="M101.88,233.37l-.46-.12-1.67-.47-2-.6-.68-.22-1.32-.44-.77-.27-1.25-.45-.77-.29L91.7,230l-1-.38-.87-.36-1.32-.56-.58-.26-1.44-.65-.48-.22-1.54-.73-.4-.19-1.66-.83-.2-.1,27.64-29.2,1.27.64c1.81.9,3.58,1.72,5.36,2.49l.34.14,1.36.57.56.23,1.14.45.67.26,1,.38.74.27.44.16.42.15.18.06.32.11.47.16.28.09.22.07.48.16.18.06.23.07.31.1.3.09.19.06.35.11.16,0,.51.15,1.51.42.84.22.85.21.54.14-27.65,29.2-.26-.06Z"/><polygon class="cls-1" points="82.25 225.72 81.8 225.48 109.44 196.27 109.89 196.52 82.25 225.72"/><path class="cls-1" d="M176.14,104.27l.09.46c-5.85,4.12-15.41,9.85-30.83,17.09q-.33-1-.68-2.06l-.29-.83c-.15-.42-.29-.84-.44-1.26l-.35-.95-.42-1.13-.38-1-.3-.77,27.64-29.2.22.57.57,1.48.34.92.53,1.46.32.92c.17.5.34,1,.51,1.51l.29.86c.19.57.37,1.15.54,1.73l.2.65q.36,1.18.69,2.37l.12.46c.18.64.35,1.28.51,1.91l.21.83c.13.52.25,1,.37,1.55l.21.94Q176,103.53,176.14,104.27Z"/><g class="cls-2"><path class="cls-1" d="M142.38,114.36l-.3-.77.46.25.3.77.38,1,.42,1.13.35.95c.15.42.3.84.44,1.26l.29.83q.35,1,.68,2.06l-.46-.25q-.33-1-.68-2.06l-.29-.83c-.15-.42-.29-.84-.44-1.26l-.35-.95-.42-1.13Z"/><g class="cls-90"><g class="cls-2"><path class="cls-1" d="M145.4,121.82l-.46-.25q-.33-1-.68-2.06l-.29-.83c-.15-.42-.29-.84-.44-1.26l-.35-.95-.42-1.13-.38-1-.3-.77.46.25.3.77.38,1,.42,1.13.35.95c.15.42.3.84.44,1.26l.29.83q.35,1,.68,2.06"/></g></g></g><g class="cls-2"><path class="cls-1" d="M135,126.54l-.46-.25q5.61-2.46,10.42-4.72c15.42-7.24,25-13,30.84-17.09l.46.25c-5.85,4.12-15.42,9.86-30.84,17.09Q140.58,124.08,135,126.54Z"/><g class="cls-91"><g class="cls-2"><path class="cls-1" d="M135,126.54l-.46-.25q5.61-2.46,10.42-4.72l.68-.32.46.25-.68.32q-4.82,2.26-10.42,4.72"/><path class="cls-1" d="M146.09,121.5l-.46-.25c14.48-6.83,23.7-12.3,29.52-16.32l.46.25c-5.81,4-15,9.49-29.52,16.32"/><path class="cls-1" d="M175.6,105.17l-.46-.25.64-.45.46.25-.64.45"/></g></g></g><polygon class="cls-1" points="172.29 165.31 171.83 165.06 134.52 126.29 134.98 126.54 172.29 165.31"/><path class="cls-1" d="M185,97.07c0,1.13-.7,22.55-12.72,68.24L135,126.54q5.61-2.46,10.42-4.72c15.42-7.24,25-13,30.84-17.09l.57-.41C183.49,99.55,184.94,97.19,185,97.07Z"/><g class="cls-2"><path class="cls-1" d="M80.08,224.58l-.46-.25-1-.55.46.25Z"/><g class="cls-92"><g class="cls-2"><path class="cls-1" d="M80.08,224.58l-.46-.25-1-.55.46.25,1,.55"/></g></g></g><g class="cls-2"><path class="cls-1" d="M79.09,224l-.46-.25-.84-.47.46.25Z"/><g class="cls-93"><g class="cls-2"><path class="cls-1" d="M79.09,224l-.46-.25-.84-.47.46.25.84.47"/></g></g></g><g class="cls-2"><path class="cls-1" d="M78.24,223.56l-.46-.25-1.12-.65.46.25Z"/><g class="cls-94"><g class="cls-2"><path class="cls-1" d="M78.24,223.56l-.46-.25-1.12-.65.46.25,1.12.65"/></g></g></g><g class="cls-2"><path class="cls-1" d="M77.12,222.91l-.46-.25-1.29-.76.46.25Z"/><g class="cls-95"><g class="cls-2"><path class="cls-1" d="M77.12,222.91l-.46-.25-1.29-.76.46.25,1.29.76"/></g></g></g><g class="cls-2"><path class="cls-1" d="M75.83,222.15l-.46-.25-.71-.43.46.25Z"/><g class="cls-96"><g class="cls-2"><path class="cls-1" d="M75.83,222.15l-.46-.25-.71-.43.46.25.71.43"/></g></g></g><g class="cls-2"><path class="cls-1" d="M75.12,221.72l-.46-.25-1.32-.81.46.25Z"/><g class="cls-97"><g class="cls-2"><path class="cls-1" d="M75.12,221.72l-.46-.25-1.32-.81.46.25,1.32.81"/></g></g></g><g class="cls-2"><path class="cls-1" d="M73.8,220.91l-.46-.25-.64-.4.46.25Z"/><g class="cls-98"><g class="cls-2"><path class="cls-1" d="M73.8,220.91l-.46-.25-.64-.4.46.25.64.4"/></g></g></g><g class="cls-2"><path class="cls-1" d="M73.16,220.51l-.46-.25-1.62-1,.46.25Z"/><g class="cls-99"><g class="cls-2"><path class="cls-1" d="M73.16,220.51l-.46-.25-1.62-1,.46.25,1.62,1"/></g></g></g><g class="cls-2"><path class="cls-1" d="M71.54,219.46l-.46-.25-.32-.21-1.93-1.3.46.25,1.93,1.3Z"/><g class="cls-100"><g class="cls-2"><path class="cls-1" d="M71.54,219.46l-.46-.25-.32-.21-1.93-1.3.46.25,1.93,1.3.32.21"/></g></g></g><g class="cls-2"><path class="cls-1" d="M69.28,218l-.46-.25-.51-.36-1.41-1,.46.25,1.41,1Z"/><g class="cls-101"><g class="cls-2"><path class="cls-1" d="M69.28,218l-.46-.25-.51-.36-1.41-1,.46.25,1.41,1,.51.36"/></g></g></g><g class="cls-2"><path class="cls-1" d="M67.36,216.61l-.46-.25-.68-.49L65,215l.46.25,1.24.9Z"/><g class="cls-102"><g class="cls-2"><path class="cls-1" d="M67.36,216.61l-.46-.25-.68-.49L65,215l.46.25,1.24.9.68.49"/></g></g></g><g class="cls-2"><path class="cls-1" d="M65.45,215.21,65,215l-.72-.53L63,213.5l.46.25,1.23.93Z"/><g class="cls-103"><g class="cls-2"><path class="cls-1" d="M65.45,215.21,65,215l-.72-.53L63,213.5l.46.25,1.23.93.72.53"/></g></g></g><g class="cls-2"><path class="cls-1" d="M63.5,213.75,63,213.5l-.68-.52-1.44-1.14.46.25,1.44,1.14Z"/><g class="cls-104"><g class="cls-2"><path class="cls-1" d="M63.5,213.75,63,213.5l-.68-.52-1.44-1.14.46.25,1.44,1.14.68.52"/></g></g></g><g class="cls-2"><path class="cls-1" d="M61.39,212.09l-.46-.25-.42-.34L58.65,210l.46.25L61,211.75Z"/><g class="cls-105"><g class="cls-2"><path class="cls-1" d="M61.39,212.09l-.46-.25-.42-.34L58.65,210l.46.25L61,211.75l.42.34"/></g></g></g><g class="cls-2"><path class="cls-1" d="M59.11,210.22l-.46-.25-.43-.36-1.41-1.2-.64-.56L55,206.78l-.67-.61-1.17-1.07-.66-.61-1.28-1.22-.49-.47q-.88-.86-1.76-1.74l.46.25q.87.88,1.76,1.74l.49.47,1.28,1.22.66.61,1.17,1.07.67.61,1.2,1.06.64.56,1.41,1.2Z"/><g class="cls-106"><g class="cls-2"><path class="cls-1" d="M59.11,210.22l-.46-.25-.43-.36-1.41-1.2-.64-.56L55,206.78l-.67-.61-1.17-1.07-.66-.61-1.28-1.22-.49-.47q-.88-.86-1.76-1.74l.46.25q.87.88,1.76,1.74l.49.47,1.28,1.22.66.61,1.17,1.07.67.61,1.2,1.06.64.56,1.41,1.2.43.36"/></g></g></g><g class="cls-2"><path class="cls-1" d="M49.41,201.32l-.46-.25-.27-.28-1.46-1.5-.57-.59.46.25.57.59,1.46,1.5Z"/><g class="cls-107"><g class="cls-2"><path class="cls-1" d="M49.41,201.32l-.46-.25-.27-.28-1.46-1.5-.57-.59.46.25.57.59,1.46,1.5.27.28"/></g></g></g><g class="cls-2"><path class="cls-1" d="M142.53,113.84l-.46-.25-.17-.42-.23-.56q-.34-.85-.7-1.69c-.36-.86-.63-1.46-.89-2.06l-.24-.53q-.39-.86-.78-1.72c-.37-.8-.66-1.41-1-2l-.26-.53q-.42-.87-.86-1.73c-.38-.75-.7-1.36-1-2l-.27-.51q-.46-.87-.93-1.73c-.4-.72-.74-1.33-1.08-1.93l-.28-.48-1-1.71c-.42-.72-.79-1.32-1.15-1.91l-.28-.46q-.55-.89-1.11-1.77c-.4-.62-.78-1.22-1.17-1.81l-.29-.44q-1.18-1.79-2.42-3.54l-.27-.38q-1.24-1.76-2.54-3.48l-.29-.39q-1.31-1.73-2.66-3.41l-.27-.34q-1.36-1.68-2.76-3.33l-.32-.37q-1.41-1.64-2.86-3.23l.46.25q1.45,1.59,2.86,3.23l.32.37q1.4,1.64,2.76,3.33l.27.34q1.35,1.69,2.66,3.41l.29.39q1.29,1.72,2.54,3.48l.27.38q1.23,1.75,2.42,3.54l.29.44c.39.59.78,1.19,1.17,1.81s.74,1.18,1.11,1.77l.28.46c.37.6.73,1.2,1.15,1.91l1,1.71.28.48c.34.6.69,1.21,1.08,1.93s.63,1.15.93,1.73l.27.51c.32.61.64,1.22,1,2q.44.86.86,1.73l.26.53c.29.61.59,1.22,1,2q.4.86.78,1.72l.24.53c.27.6.53,1.21.89,2.06q.36.84.7,1.69l.23.56Z"/><g class="cls-108"><g class="cls-2"><path class="cls-1" d="M142.53,113.84l-.46-.25-.17-.42-.23-.56q-.34-.85-.7-1.69c-.36-.86-.63-1.46-.89-2.06l-.24-.53q-.39-.86-.78-1.72c-.37-.8-.66-1.41-1-2l-.26-.53q-.42-.87-.86-1.73c-.38-.75-.7-1.36-1-2l-.27-.51q-.46-.87-.93-1.73c-.4-.72-.74-1.33-1.08-1.93l-.28-.48-1-1.71c-.42-.72-.79-1.32-1.15-1.91l-.28-.46q-.55-.89-1.11-1.77c-.4-.62-.78-1.22-1.17-1.81l-.29-.44q-1.18-1.79-2.42-3.54l-.27-.38q-1.24-1.76-2.54-3.48l-.29-.39q-1.31-1.73-2.66-3.41l-.27-.34q-1.36-1.68-2.76-3.33l-.32-.37q-1.41-1.64-2.86-3.23l.46.25q1.45,1.59,2.86,3.23l.32.37q1.4,1.64,2.76,3.33l.27.34q1.35,1.69,2.66,3.41l.29.39q1.29,1.72,2.54,3.48l.27.38q1.23,1.75,2.42,3.54l.29.44c.39.59.78,1.19,1.17,1.81s.74,1.18,1.11,1.77l.28.46c.37.6.73,1.2,1.15,1.91l1,1.71.28.48c.34.6.69,1.21,1.08,1.93s.63,1.15.93,1.73l.27.51c.32.61.64,1.22,1,2q.44.86.86,1.73l.26.53c.29.61.59,1.22,1,2q.4.86.78,1.72l.24.53c.27.6.53,1.21.89,2.06q.36.84.7,1.69l.23.56.17.42"/></g></g></g><g class="cls-2"><path class="cls-1" d="M114.49,69.38l-.46-.25-.28-.31q-1.46-1.6-3-3.15l.46.25q1.5,1.55,3,3.15Z"/><g class="cls-109"><g class="cls-2"><path class="cls-1" d="M114.49,69.38l-.46-.25-.28-.31q-1.46-1.6-3-3.15l.46.25q1.5,1.55,3,3.15l.28.31"/></g></g></g><g class="cls-2"><path class="cls-1" d="M111.24,65.92l-.46-.25-.31-.32q-1.5-1.53-3-3l.46.25q1.53,1.49,3,3Z"/><g class="cls-110"><g class="cls-2"><path class="cls-1" d="M111.24,65.92l-.46-.25-.31-.32q-1.5-1.53-3-3l.46.25q1.53,1.49,3,3l.31.32"/></g></g></g><g class="cls-2"><path class="cls-1" d="M107.9,62.58l-.46-.25L107.1,62q-1.54-1.48-3.12-2.91l.46.25q1.58,1.43,3.12,2.91Z"/><g class="cls-111"><g class="cls-2"><path class="cls-1" d="M107.9,62.58l-.46-.25L107.1,62q-1.54-1.48-3.12-2.91l.46.25q1.58,1.43,3.12,2.91l.34.33"/></g></g></g><g class="cls-2"><path class="cls-1" d="M104.44,59.34l-.46-.25-.32-.29q-1.58-1.42-3.19-2.79l.46.25q1.61,1.37,3.19,2.79Z"/><g class="cls-112"><g class="cls-2"><path class="cls-1" d="M104.44,59.34l-.46-.25-.32-.29q-1.58-1.42-3.19-2.79l.46.25q1.61,1.37,3.19,2.79l.32.29"/></g></g></g><g class="cls-2"><path class="cls-1" d="M100.93,56.26l-.46-.25-.36-.3-1.6-1.33-1.64-1.32.46.25L99,54.62l1.6,1.33Z"/><g class="cls-113"><g class="cls-2"><path class="cls-1" d="M100.93,56.26l-.46-.25-.36-.3-1.6-1.33-1.64-1.32.46.25L99,54.62l1.6,1.33.36.3"/></g></g></g><g class="cls-2"><path class="cls-1" d="M97.33,53.3l-.46-.25-.37-.29-1.62-1.26-1.68-1.26.46.25,1.68,1.26L97,53Z"/><g class="cls-114"><g class="cls-2"><path class="cls-1" d="M97.33,53.3l-.46-.25-.37-.29-1.62-1.26-1.68-1.26.46.25,1.68,1.26L97,53l.37.29"/></g></g></g><g class="cls-2"><path class="cls-1" d="M93.66,50.5l-.46-.25-.4-.3-1.62-1.17-1.72-1.19.46.25L91.63,49l1.62,1.17Z"/><g class="cls-115"><g class="cls-2"><path class="cls-1" d="M93.66,50.5l-.46-.25-.4-.3-1.62-1.17-1.72-1.19.46.25L91.63,49l1.62,1.17.4.3"/></g></g></g><g class="cls-2"><path class="cls-1" d="M104.61,10.91q1.09.56,2.17,1.15l.46.25q-1.08-.59-2.17-1.15Z"/><g class="cls-116"><g class="cls-2"><path class="cls-1" d="M105.07,11.16l-.46-.25q1.09.56,2.17,1.15l.46.25q-1.08-.59-2.17-1.15"/></g></g></g><g class="cls-2"><path class="cls-1" d="M107.62,195.32l-.46-.25A136.38,136.38,0,0,1,72,167a149.78,149.78,0,0,1-28.24-44.71l.46.25a149.78,149.78,0,0,0,28.24,44.71A136.38,136.38,0,0,0,107.62,195.32Z"/><g class="cls-117"><g class="cls-2"><path class="cls-1" d="M107.62,195.32l-.46-.25A136.38,136.38,0,0,1,72,167a149.78,149.78,0,0,1-28.24-44.71l.46.25a149.78,149.78,0,0,0,28.24,44.71,136.38,136.38,0,0,0,35.16,28"/></g></g></g><polygon class="cls-1" points="44.22 122.58 43.77 122.33 44.25 121.92 44.71 122.17 44.22 122.58"/><path class="cls-1" d="M47.1,198.95l-1.16-1.23-1.14-1.23-1.09-1.21-.6-.68-.76-.87-.63-.72-.6-.7-1.5-1.81-.43-.52-.83-1-.45-.56-.8-1-.45-.58-.8-1-.4-.54-.82-1.1-.31-.42q-1.38-1.88-2.69-3.8l-.4-.58-.68-1-.46-.69-.62-.95-.52-.81-.56-.88-.58-.92-.48-.78-.71-1.18-.33-.56-1-1.77-1-1.7-.65-1.18-.44-.8-.7-1.32-.35-.66q-.47-.92-.93-1.84c-.42-.84-.75-1.51-1.07-2.18l-.25-.52-.7-1.49-.32-.71L18.35,156l-.35-.8L17.48,154l-.34-.83-.5-1.23-.12-.31,26.53-28,1.18-1,.12.3.28.68.48,1.17.3.7.5,1.15.3.7.57,1.26.25.55q.42.91.85,1.81l.89,1.82.28.55.64,1.26.33.64.61,1.16L51,137l.63,1.16.35.64.73,1.29.27.48,1,1.75.25.42.81,1.34.38.62.7,1.13.43.68.68,1.05.46.71.22.33.47.7.31.46.57.85.48.7.44.63.22.31.27.38.21.3.18.25.43.59.4.55.63.86.37.5.62.83.28.37.3.39.47.61.5.63.33.42.21.27.3.37,1.51,1.87.28.34.26.31.32.39.47.56.59.69.29.34.2.24.58.66.26.29.25.28.51.57.4.45.66.73.44.48.24.26.65.69.33.36,1.4,1.47L77,172.07c1.18,1.19,2.22,2.2,3.27,3.19a130.33,130.33,0,0,0,29.6,21.26l-27.64,29.2-1.5-.79-.49-.26L79.09,224l-.84-.47-1.12-.65-1.29-.76-.71-.43-1.32-.81-.64-.4-1.62-1-.32-.21L69.28,218l-.51-.36-1.41-1-.68-.49-1.24-.9-.72-.53-1.23-.93-.68-.52-1.44-1.14-.42-.34-1.86-1.53-.43-.36-1.41-1.2-.64-.56L55.43,207l-.67-.61-1.17-1.07-.66-.61-1.28-1.22-.49-.47q-.88-.86-1.76-1.74l-.27-.28-1.46-1.5Z"/><path class="cls-1" d="M44.71,122.17a148.38,148.38,0,0,0,28.13,44.69c16.08,17.66,35.42,30.43,54.46,36a67.5,67.5,0,0,0,28.19,2.52,49,49,0,0,0,10-2.47,44.62,44.62,0,0,0,6.36-2.9,43.1,43.1,0,0,0,10-7.64A46.22,46.22,0,0,0,190,180.86l.64.56a45,45,0,0,1-14.37,16.85,43.77,43.77,0,0,1-6.18,3.62q-2,1-4.12,1.74a49.31,49.31,0,0,1-10.09,2.49l-1.24.16q-1.64.19-3.33.29-2.66.15-5.41.07l-.67,0-.53,0-.94-.05a78.06,78.06,0,0,1-16.32-3c-19.21-5.6-38.72-18.48-54.93-36.29a149.78,149.78,0,0,1-28.24-44.71Z"/><g class="cls-2"><path class="cls-1" d="M89.92,47.84l-.46-.25L89,47.31l-1.62-1.08L85.67,45.1l.46.25,1.75,1.13,1.62,1.08Z"/><g class="cls-118"><g class="cls-2"><path class="cls-1" d="M89.92,47.84l-.46-.25L89,47.31l-1.62-1.08L85.67,45.1l.46.25,1.75,1.13,1.62,1.08.41.28"/></g></g></g><g class="cls-2"><path class="cls-1" d="M104.44,10.1q1.2.62,2.4,1.27l.46.25q-1.2-.65-2.4-1.27Z"/><g class="cls-119"><g class="cls-2"><path class="cls-1" d="M103.3,9.55l-.46-.25q2,1,4,2.08l.46.25q-2-1.08-4-2.08"/></g></g></g><polygon class="cls-1" points="43.04 123.59 42.58 123.34 43.77 122.33 44.22 122.58 43.04 123.59"/><g class="cls-2"><path class="cls-1" d="M86.13,45.35l-.46-.25-.47-.29.46.25Z"/><g class="cls-120"><g class="cls-2"><path class="cls-1" d="M86.13,45.35l-.46-.25-.47-.29.46.25.47.29"/></g></g></g><g class="cls-2"><path class="cls-1" d="M85.66,45.05l-.46-.25-1.57-1,.46.25Z"/><g class="cls-121"><g class="cls-2"><path class="cls-1" d="M85.66,45.05l-.46-.25-1.57-1,.46.25,1.57,1"/></g></g></g><g class="cls-2"><path class="cls-1" d="M84.09,44.09l-.46-.25-1.83-1.08.46.25Z"/><g class="cls-122"><g class="cls-2"><path class="cls-1" d="M84.09,44.09l-.46-.25-1.83-1.08.46.25,1.83,1.08"/></g></g></g><g class="cls-2"><path class="cls-1" d="M82.27,43l-.46-.25-.48-.28.46.25Z"/><g class="cls-123"><g class="cls-2"><path class="cls-1" d="M82.27,43l-.46-.25-.48-.28.46.25.48.28"/></g></g></g><g class="cls-2"><path class="cls-1" d="M81.78,42.73l-.46-.25-1.58-.89.46.25Z"/><g class="cls-124"><g class="cls-2"><path class="cls-1" d="M81.78,42.73l-.46-.25-1.58-.89.46.25,1.58.89"/></g></g></g><polygon class="cls-1" points="16.51 151.61 16.06 151.36 42.58 123.34 43.04 123.59 16.51 151.61"/><g class="cls-2"><path class="cls-1" d="M47.1,198.95l-.46-.25-1.16-1.23-1.14-1.23L43.27,195l-.6-.68-.76-.87-.63-.72-.6-.7-1.5-1.81-.43-.52-.83-1-.45-.56-.8-1-.45-.58-.8-1L35,185l-.82-1.1-.31-.42q-1.38-1.88-2.69-3.8l-.4-.58-.68-1-.46-.69-.62-.95-.52-.81L28,174.7l-.58-.92-.48-.78-.71-1.18-.33-.56-1-1.77-1-1.7-.65-1.18-.44-.8-.7-1.32-.35-.66q-.47-.92-.93-1.84c-.42-.84-.75-1.51-1.07-2.18l-.25-.52-.7-1.49-.32-.71-.59-1.32-.35-.8L17,153.73l-.34-.83-.5-1.23-.12-.31.46.25.12.31.5,1.23.34.83L18,155.2l.35.8.59,1.32.32.71.7,1.49.25.52c.32.68.65,1.35,1.07,2.18q.46.92.93,1.84l.35.66.7,1.32.44.8.65,1.18,1,1.7,1,1.77.33.56.71,1.18.48.78.58.92.56.88.52.81.62.95.46.69.68,1,.4.58q1.31,1.92,2.69,3.8l.31.42.82,1.1.4.54.8,1,.45.58.8,1,.45.56.83,1,.43.52,1.5,1.81.6.7.63.72.76.87.6.68,1.09,1.21,1.14,1.23Z"/><g class="cls-125"><g class="cls-2"><path class="cls-1" d="M47.1,198.95l-.46-.25-1.16-1.23-1.14-1.23L43.27,195l-.6-.68-.76-.87-.63-.72-.6-.7-1.5-1.81-.43-.52-.83-1-.45-.56-.8-1-.45-.58-.8-1L35,185l-.82-1.1-.31-.42q-1.38-1.88-2.69-3.8l-.4-.58-.68-1-.46-.69-.62-.95-.52-.81L28,174.7l-.58-.92-.48-.78-.71-1.18-.33-.56-1-1.77-1-1.7-.65-1.18-.44-.8-.7-1.32-.35-.66q-.47-.92-.93-1.84c-.42-.84-.75-1.51-1.07-2.18l-.25-.52-.7-1.49-.32-.71-.59-1.32-.35-.8L17,153.73l-.34-.83-.5-1.23-.12-.31.46.25.12.31.5,1.23.34.83L18,155.2l.35.8.59,1.32.32.71.7,1.49.25.52c.32.68.65,1.35,1.07,2.18q.46.92.93,1.84l.35.66.7,1.32.44.8.65,1.18,1,1.7,1,1.77.33.56.71,1.18.48.78.58.92.56.88.52.81.62.95.46.69.68,1,.4.58q1.31,1.92,2.69,3.8l.31.42.82,1.1.4.54.8,1,.45.58.8,1,.45.56.83,1,.43.52,1.5,1.81.6.7.63.72.76.87.6.68,1.09,1.21,1.14,1.23,1.16,1.23"/></g></g></g><g class="cls-2"><path class="cls-1" d="M16.51,151.61l-.46-.25-.22-.55-.43-1.12-.34-.9-.4-1.09.46.25.4,1.09.34.9.43,1.12Z"/><g class="cls-126"><g class="cls-2"><path class="cls-1" d="M16.51,151.61l-.46-.25-.22-.55-.43-1.12-.34-.9-.4-1.09.46.25.4,1.09.34.9.43,1.12.22.55"/></g></g></g><g class="cls-2"><path class="cls-1" d="M15.12,148l-.46-.25-.14-.4.46.25Z"/><g class="cls-127"><g class="cls-2"><path class="cls-1" d="M15.12,148l-.46-.25-.14-.4.46.25.14.4"/></g></g></g><path class="cls-1" d="M15.12,148l-.14-.4,28.06-24-26.53,28-.22-.55-.43-1.12-.34-.9Z"/><polygon class="cls-1" points="14.98 147.56 14.52 147.31 42.58 123.34 43.04 123.59 14.98 147.56"/><g class="cls-2"><path class="cls-1" d="M39.48,102.08l-.46-.25c5,2.72,11,5.74,18.14,9.06l.46.25C50.46,107.82,44.47,104.8,39.48,102.08Z"/><g class="cls-128"><g class="cls-2"><path class="cls-1" d="M39.48,102.08l-.46-.25c3.08,1.67,6.53,3.46,10.4,5.37l.46.25c-3.87-1.9-7.32-3.69-10.4-5.37"/><path class="cls-1" d="M49.88,107.44l-.46-.25q3.62,1.78,7.74,3.7l.46.25q-4.12-1.92-7.74-3.7"/></g></g></g><g class="cls-2"><path class="cls-1" d="M3.81,157.1l-.46-.25C1.6,111.28,13.17,84.44,13.78,83l.46.25C13.63,84.69,2.06,111.52,3.81,157.1Z"/><g class="cls-129"><g class="cls-2"><path class="cls-1" d="M3.81,157.1l-.46-.25C1.9,119.09,9.6,94.2,12.62,86l.46.25c-3,8.23-10.72,33.13-9.27,70.88"/><path class="cls-1" d="M13.08,86.21,12.62,86c.63-1.7,1.05-2.69,1.16-2.94l.46.25c-.1.24-.53,1.23-1.16,2.94"/></g></g></g><path class="cls-1" d="M14.24,83.28c.2.48,3.93,9.54,43.38,27.86l-12.91,11-.48.41-1.18,1L15,147.56,3.81,157.1C2.06,111.52,13.63,84.69,14.24,83.28Z"/><g class="cls-2"><path class="cls-1" d="M58.59.54Q60.74.24,63,.1l.46.25Q61.19.49,59,.79Z"/><g class="cls-130"><g class="cls-2"><path class="cls-1" d="M59,.79,58.59.54a66.78,66.78,0,0,1,26,1.91l.46.25A66.78,66.78,0,0,0,59,.79"/></g></g></g><polygon class="cls-1" points="4.6 43.48 4.14 43.23 31.79 14.03 32.25 14.28 4.6 43.48"/><polygon class="cls-1" points="1.07 49.13 0.62 48.89 0 48.28 0.46 48.53 1.07 49.13"/><g class="cls-2"><path class="cls-1" d="M.46,48.53,0,48.28a45.64,45.64,0,0,1,4.14-5.05l.46.25A45.64,45.64,0,0,0,.46,48.53Z"/><g class="cls-131"><g class="cls-2"><path class="cls-1" d="M.46,48.53,0,48.28a46.06,46.06,0,0,1,3.06-3.87l.46.25A46.06,46.06,0,0,0,.46,48.53"/><path class="cls-1" d="M3.52,44.66l-.46-.25q.53-.6,1.08-1.18l.46.25q-.55.58-1.08,1.18"/></g></g></g></g></g></g></svg>